# This file uses centimeters as units for non-parametric coordinates.

mtllib objPillar.mtl
g default
v 2.594976 23.547676 -2.545010
v 2.198550 23.547676 -2.545010
v 2.594976 25.267876 -3.393272
v 2.198550 25.267876 -3.393272
v 2.594976 24.980568 -3.975900
v 2.198550 24.980568 -3.975900
v 2.594976 23.399788 -2.844887
v 2.198550 23.399788 -2.844887
v 1.815012 23.547676 -2.545010
v 1.418515 23.547676 -2.545010
v 1.815012 25.267876 -3.393272
v 1.418515 25.267876 -3.393272
v 1.815012 24.980568 -3.975900
v 1.418515 24.980568 -3.975900
v 1.815012 23.399788 -2.844887
v 1.418515 23.399788 -2.844887
v 1.032441 23.547676 -2.545010
v 0.636015 23.547676 -2.545010
v 1.032441 25.267876 -3.393272
v 0.636015 25.267876 -3.393272
v 1.032441 24.980568 -3.975900
v 0.636015 24.980568 -3.975900
v 1.032441 23.399788 -2.844887
v 0.636015 23.399788 -2.844887
v 0.260058 23.547676 -2.545010
v -0.136368 23.547676 -2.545010
v 0.260058 25.267876 -3.393272
v -0.136368 25.267876 -3.393272
v 0.260058 24.980568 -3.975900
v -0.136368 24.980568 -3.975900
v 0.260058 23.399788 -2.844887
v -0.136368 23.399788 -2.844887
v -0.584983 23.547676 -2.545010
v -0.981385 23.547676 -2.545010
v -0.584983 25.267876 -3.393272
v -0.981385 25.267876 -3.393272
v -0.584983 24.980568 -3.975900
v -0.981385 24.980568 -3.975900
v -0.584983 23.399788 -2.844887
v -0.981385 23.399788 -2.844887
v -1.397568 23.547676 -2.545010
v -1.793971 23.547676 -2.545010
v -1.397568 25.267876 -3.393272
v -1.793971 25.267876 -3.393272
v -1.397568 24.980568 -3.975900
v -1.793971 24.980568 -3.975900
v -1.397568 23.399788 -2.844887
v -1.793971 23.399788 -2.844887
v -2.177604 23.547676 -2.545010
v -2.574030 23.547676 -2.545010
v -2.177604 25.267876 -3.393272
v -2.574030 25.267876 -3.393272
v -2.177604 24.980568 -3.975900
v -2.574030 24.980568 -3.975900
v -2.177604 23.399788 -2.844887
v -2.574030 23.399788 -2.844887
v 2.594976 23.547676 2.545974
v 2.198550 23.547676 2.545974
v 2.594976 25.267876 3.394248
v 2.198550 25.267876 3.394248
v 2.594976 24.980568 3.976864
v 2.198550 24.980568 3.976864
v 2.594976 23.399788 2.845852
v 2.198550 23.399788 2.845852
v 1.815012 23.547676 2.545974
v 1.418515 23.547676 2.545974
v 1.815012 25.267876 3.394248
v 1.418515 25.267876 3.394248
v 1.815012 24.980568 3.976864
v 1.418515 24.980568 3.976864
v 1.815012 23.399788 2.845852
v 1.418515 23.399788 2.845852
v 1.032441 23.547676 2.545974
v 0.636015 23.547676 2.545974
v 1.032441 25.267876 3.394248
v 0.636015 25.267876 3.394248
v 1.032441 24.980568 3.976864
v 0.636015 24.980568 3.976864
v 1.032441 23.399788 2.845852
v 0.636015 23.399788 2.845852
v 0.260058 23.547676 2.545974
v -0.136368 23.547676 2.545974
v 0.260058 25.267876 3.394248
v -0.136368 25.267876 3.394248
v 0.260058 24.980568 3.976864
v -0.136368 24.980568 3.976864
v 0.260058 23.399788 2.845852
v -0.136368 23.399788 2.845852
v -0.584983 23.547676 2.545974
v -0.981385 23.547676 2.545974
v -0.584983 25.267876 3.394248
v -0.981385 25.267876 3.394248
v -0.584983 24.980568 3.976864
v -0.981385 24.980568 3.976864
v -0.584983 23.399788 2.845852
v -0.981385 23.399788 2.845852
v -1.397568 23.547676 2.545974
v -1.793971 23.547676 2.545974
v -1.397568 25.267876 3.394248
v -1.793971 25.267876 3.394248
v -1.397568 24.980568 3.976864
v -1.793971 24.980568 3.976864
v -1.397568 23.399788 2.845852
v -1.793971 23.399788 2.845852
v -2.177604 23.547676 2.545974
v -2.574030 23.547676 2.545974
v -2.177604 25.267876 3.394248
v -2.574030 25.267876 3.394248
v -2.177604 24.980568 3.976864
v -2.574030 24.980568 3.976864
v -2.177604 23.399788 2.845852
v -2.574030 23.399788 2.845852
v 2.555959 23.547676 2.625216
v 2.555959 23.547676 2.228791
v 3.404245 25.267876 2.625216
v 3.404245 25.267876 2.228791
v 3.986944 24.980568 2.625216
v 3.986944 24.980568 2.228791
v 2.855873 23.399788 2.625216
v 2.855873 23.399788 2.228791
v 2.555959 23.547676 1.845252
v 2.555959 23.547676 1.448873
v 3.404245 25.267876 1.845252
v 3.404245 25.267876 1.448873
v 3.986944 24.980568 1.845252
v 3.986944 24.980568 1.448873
v 2.855873 23.399788 1.845252
v 2.855873 23.399788 1.448873
v 2.555959 23.547676 1.062599
v 2.555959 23.547676 0.666185
v 3.404245 25.267876 1.062599
v 3.404245 25.267876 0.666185
v 3.986944 24.980568 1.062599
v 3.986944 24.980568 0.666185
v 2.855873 23.399788 1.062599
v 2.855873 23.399788 0.666185
v 2.555959 23.547676 0.290369
v 2.555959 23.547676 -0.106045
v 3.404245 25.267876 0.290369
v 3.404245 25.267876 -0.106045
v 3.986944 24.980568 0.290369
v 3.986944 24.980568 -0.106045
v 2.855873 23.399788 0.290369
v 2.855873 23.399788 -0.106045
v 2.555959 23.547676 -0.554861
v 2.555959 23.547676 -0.951275
v 3.404245 25.267876 -0.554861
v 3.404245 25.267876 -0.951275
v 3.986944 24.980568 -0.554861
v 3.986944 24.980568 -0.951275
v 2.855873 23.399788 -0.554861
v 2.855873 23.399788 -0.951275
v 2.555959 23.547676 -1.367399
v 2.555959 23.547676 -1.763813
v 3.404245 25.267876 -1.367399
v 3.404245 25.267876 -1.763813
v 3.986944 24.980568 -1.367399
v 3.986944 24.980568 -1.763813
v 2.855873 23.399788 -1.367399
v 2.855873 23.399788 -1.763813
v 2.555959 23.547676 -2.147316
v 2.555959 23.547676 -2.543742
v 3.404245 25.267876 -2.147316
v 3.404245 25.267876 -2.543742
v 3.986944 24.980568 -2.147316
v 3.986944 24.980568 -2.543742
v 2.855873 23.399788 -2.147316
v 2.855873 23.399788 -2.543742
v -2.535084 23.547676 2.625216
v -2.535084 23.547676 2.228791
v -3.383369 25.267876 2.625216
v -3.383369 25.267876 2.228791
v -3.965998 24.980568 2.625216
v -3.965998 24.980568 2.228791
v -2.834926 23.399788 2.625216
v -2.834926 23.399788 2.228791
v -2.535084 23.547676 1.845252
v -2.535084 23.547676 1.448873
v -3.383369 25.267876 1.845252
v -3.383369 25.267876 1.448873
v -3.965998 24.980568 1.845252
v -3.965998 24.980568 1.448873
v -2.834926 23.399788 1.845252
v -2.834926 23.399788 1.448873
v -2.535084 23.547676 1.062599
v -2.535084 23.547676 0.666185
v -3.383369 25.267876 1.062599
v -3.383369 25.267876 0.666185
v -3.965998 24.980568 1.062599
v -3.965998 24.980568 0.666185
v -2.834926 23.399788 1.062599
v -2.834926 23.399788 0.666185
v -2.535084 23.547676 0.290369
v -2.535084 23.547676 -0.106045
v -3.383369 25.267876 0.290369
v -3.383369 25.267876 -0.106045
v -3.965998 24.980568 0.290369
v -3.965998 24.980568 -0.106045
v -2.834926 23.399788 0.290369
v -2.834926 23.399788 -0.106045
v -2.535084 23.547676 -0.554861
v -2.535084 23.547676 -0.951275
v -3.383369 25.267876 -0.554861
v -3.383369 25.267876 -0.951275
v -3.965998 24.980568 -0.554861
v -3.965998 24.980568 -0.951275
v -2.834926 23.399788 -0.554861
v -2.834926 23.399788 -0.951275
v -2.535084 23.547676 -1.367399
v -2.535084 23.547676 -1.763813
v -3.383369 25.267876 -1.367399
v -3.383369 25.267876 -1.763813
v -3.965998 24.980568 -1.367399
v -3.965998 24.980568 -1.763813
v -2.834926 23.399788 -1.367399
v -2.834926 23.399788 -1.763813
v -2.535084 23.547676 -2.147316
v -2.535084 23.547676 -2.543742
v -3.383369 25.267876 -2.147316
v -3.383369 25.267876 -2.543742
v -3.965998 24.980568 -2.147316
v -3.965998 24.980568 -2.543742
v -2.834926 23.399788 -2.147316
v -2.834926 23.399788 -2.543742
v -6.458435 0.225141 6.458481
v 6.458435 0.225141 6.458481
v -5.919675 2.304145 5.919718
v 5.919675 2.304145 5.919718
v -5.919675 2.304145 -5.919718
v 5.919675 2.304145 -5.919718
v -6.458435 0.225141 -6.458481
v 6.458435 0.225141 -6.458481
v -5.236497 2.304145 5.185078
v 5.236454 2.304145 5.185078
v 5.236454 2.304145 -5.185049
v -5.236497 2.304145 -5.185049
v -5.236497 2.158210 5.185078
v 5.236454 2.158210 5.185078
v 5.236454 2.158210 -5.185049
v -5.236497 2.158210 -5.185049
v -2.077155 2.158210 2.056764
v 2.077155 2.158210 2.056764
v 2.077155 2.158210 -2.056736
v -2.077155 2.158210 -2.056736
v -2.077155 4.254023 2.056764
v 2.077155 4.254023 2.056764
v 2.077155 4.254023 -2.056736
v -2.077155 4.254023 -2.056736
v -2.043247 4.449922 2.023156
v 2.043247 4.449922 2.023156
v 2.043247 4.449922 -2.023156
v -2.043247 4.449922 -2.023156
v -1.936264 4.681250 1.917202
v 1.936221 4.681250 1.917202
v 1.936221 4.681250 -1.917202
v -1.936264 4.681250 -1.917202
v -1.835097 4.846858 1.817028
v 1.834997 4.846858 1.817028
v 1.834997 4.846858 -1.817028
v -1.835097 4.846858 -1.817028
v -1.743361 4.846858 1.726199
v 1.743261 4.846858 1.726199
v 1.743261 4.846858 -1.726178
v -1.743361 4.846858 -1.726178
v -2.890289 24.068619 2.861843
v 2.890151 24.068619 2.861843
v 2.890151 24.068619 -2.861825
v -2.890289 24.068619 -2.861825
v -3.834424 24.862684 3.796703
v 3.834382 24.862684 3.796703
v 3.834382 24.862684 -3.796674
v -3.834424 24.862684 -3.796674
v -4.683160 25.208969 4.637195
v 4.683189 25.208969 4.637195
v 4.683189 25.208969 -4.637178
v -4.683160 25.208969 -4.637178
v -4.875451 25.718502 4.827590
v 4.875408 25.718502 4.827590
v 4.875408 25.718502 -4.827562
v -4.875451 25.718502 -4.827562
v -4.306658 27.125439 4.264388
v 4.306757 27.125439 4.264388
v 4.306757 27.125439 -4.264324
v -4.306658 27.125439 -4.264324
v -3.947733 27.125439 3.909040
v 3.947690 27.125439 3.909040
v 3.947690 27.125439 -3.908976
v -3.947733 27.125439 -3.908976
v -3.730189 25.310947 3.693605
v 3.730288 25.310947 3.693605
v 3.730288 25.310947 -3.693588
v -3.730189 25.310947 -3.693588
v -2.890289 23.749916 2.861843
v -2.890289 23.749916 -2.861825
v 2.890151 23.749916 -2.861825
v 2.890151 23.749916 2.861843
v -2.077155 2.300045 2.056764
v -2.077155 2.300045 -2.056736
v 2.077155 2.300045 -2.056736
v 2.077155 2.300045 2.056764
v -2.077155 2.551975 2.056764
v -2.077155 2.551975 -2.056736
v 2.077155 2.551975 -2.056736
v 2.077155 2.551975 2.056764
v -2.151372 4.449922 2.124259
v 2.151315 4.449922 2.124259
v 2.038674 4.681250 2.013011
v -2.038674 4.681250 2.013011
v 2.151315 4.449922 -2.124230
v 2.038674 4.681250 -2.012990
v -2.151372 4.449922 -2.124230
v -2.038674 4.681250 -2.012990
v -3.043160 23.749916 3.004810
v -3.043160 23.749916 -3.004794
v -3.043160 24.068619 3.004810
v -3.043160 24.068619 -3.004794
v 3.043117 23.749916 -3.004794
v 3.043117 24.068619 -3.004794
v 3.043117 23.749916 3.004810
v 3.043117 24.068619 3.004810
v -2.187052 2.300045 2.159503
v -2.187052 2.300045 -2.159503
v -2.187052 2.551975 2.159503
v -2.187052 2.551975 -2.159503
v 2.186996 2.300045 -2.159503
v 2.186996 2.551975 -2.159503
v 2.186996 2.300045 2.159503
v 2.186996 2.551975 2.159503
v -5.776784 2.304145 5.766010
v -5.776784 2.304145 -5.765988
v 5.776841 2.304145 -5.765988
v 5.776841 2.304145 5.766010
v -5.407352 2.304145 5.368836
v -5.407352 2.304145 -5.368815
v 5.407352 2.304145 -5.368815
v 5.407352 2.304145 5.368836
v -5.776784 2.394624 5.766010
v -5.776784 2.394624 -5.765988
v -5.407352 2.394624 5.368836
v -5.407352 2.394624 -5.368815
v 5.776841 2.394624 -5.765988
v 5.407352 2.394624 -5.368815
v 5.776841 2.394624 5.766010
v 5.407352 2.394624 5.368836
v -5.661328 2.394624 5.641838
v -5.661328 2.394624 -5.641838
v 5.661285 2.394624 -5.641838
v 5.661285 2.394624 5.641838
v -5.549301 2.394624 5.521401
v -5.549301 2.394624 -5.521373
v 5.549344 2.394624 -5.521373
v 5.549344 2.394624 5.521401
v -5.661328 2.353645 5.641838
v -5.661328 2.353645 -5.641838
v -5.549301 2.353645 5.521401
v -5.549301 2.353645 -5.521373
v 5.661285 2.353645 -5.641838
v 5.549344 2.353645 -5.521373
v 5.661285 2.353645 5.641838
v 5.549344 2.353645 5.521401
v -1.290095 5.107594 1.726199
v 1.290095 5.107594 1.726199
v 2.138852 23.317636 2.861843
v -2.138824 23.317636 2.861843
v 1.743261 5.107594 1.277442
v 1.743261 5.107594 -1.277442
v 2.890151 23.317636 -2.117870
v 2.890151 23.317636 2.117851
v -1.290095 5.107594 -1.726178
v 1.290095 5.107594 -1.726178
v -2.138824 23.317636 -2.861825
v 2.138852 23.317636 -2.861825
v -1.743361 5.107594 1.277442
v -1.743361 5.107594 -1.277442
v -2.890289 23.317636 2.117851
v -2.890289 23.317636 -2.117870
v -1.290095 5.107594 1.653182
v 1.290095 5.107594 1.653182
v 2.138852 23.317636 2.740787
v -2.138824 23.317636 2.740787
v 1.670286 5.107594 1.277442
v 1.670286 5.107594 -1.277442
v 2.769168 23.317636 -2.117870
v 2.769168 23.317636 2.117851
v -1.290095 5.107594 -1.653153
v 1.290095 5.107594 -1.653153
v -2.138824 23.317636 -2.740759
v 2.138852 23.317636 -2.740759
v -1.670286 5.107594 1.277442
v -1.670286 5.107594 -1.277442
v -2.769139 23.317636 2.117851
v -2.769139 23.317636 -2.117870
v 4.365872 26.979168 4.322937
v -4.365788 26.979168 4.322937
v -4.365788 26.979168 -4.322876
v 4.365872 26.979168 -4.322876
v 4.458054 26.751101 4.414236
v -4.457993 26.751101 4.414236
v -4.457993 26.751101 -4.414181
v 4.458054 26.751101 -4.414181
v 4.712674 26.121136 4.666416
v -4.712677 26.121136 4.666416
v -4.712677 26.121136 -4.666377
v 4.712674 26.121136 -4.666377
v -5.014436 26.121136 4.914783
v -4.743444 26.751101 4.649180
v 5.014434 26.121136 4.914783
v 4.743510 26.751101 4.649180
v -5.014436 26.121136 -4.914744
v -4.743444 26.751101 -4.649125
v 5.014434 26.121136 -4.914744
v 4.743510 26.751101 -4.649125
vt 3.995363 4.438234
vt 3.838982 4.755360
vt 3.731571 4.702394
vt 3.940078 4.410970
vt 4.142036 4.410970
vt 4.350544 4.702394
vt 4.243133 4.755360
vt 4.086752 4.438234
vt 4.705725 4.460468
vt 4.549344 4.777595
vt 4.441933 4.724628
vt 4.650441 4.433204
vt 4.852397 4.433204
vt 5.060905 4.724628
vt 4.953495 4.777595
vt 4.797115 4.460468
vt 5.416086 4.460468
vt 5.259706 4.777595
vt 5.152295 4.724628
vt 5.360803 4.433204
vt 5.562759 4.433204
vt 5.771268 4.724628
vt 5.663857 4.777595
vt 5.507477 4.460468
vt 6.126449 4.460468
vt 5.970068 4.777595
vt 5.862657 4.724628
vt 6.071165 4.433204
vt 5.963868 4.823059
vt 6.172375 5.114483
vt 6.064964 5.167448
vt 5.908582 4.850321
vt 5.838701 4.850321
vt 5.682320 5.167448
vt 5.574909 5.114483
vt 5.783417 4.823059
vt 5.296522 4.823059
vt 5.505029 5.114483
vt 5.397619 5.167448
vt 5.241237 4.850321
vt 5.171356 4.850321
vt 5.014975 5.167448
vt 4.907565 5.114483
vt 5.116072 4.823059
vt 4.629175 4.823059
vt 4.837683 5.114483
vt 4.730272 5.167448
vt 4.573892 4.850321
vt 4.504009 4.850321
vt 4.347629 5.167448
vt 4.240218 5.114483
vt 4.448726 4.823059
vt 3.961830 4.800824
vt 4.170337 5.092247
vt 4.062926 5.145215
vt 3.906546 4.828089
vt 3.572873 4.954700
vt 3.628157 4.927437
vt 3.836664 5.218862
vt 3.729257 5.271827
vt 3.447707 5.208112
vt 3.502990 5.235375
vt 3.346607 5.552502
vt 3.239199 5.499537
vt 2.905526 5.235375
vt 2.960810 5.208112
vt 3.169317 5.499537
vt 3.061910 5.552502
vt 2.780361 5.208112
vt 2.835645 5.235375
vt 2.679262 5.552502
vt 2.571853 5.499537
vt 2.238180 5.205767
vt 2.293464 5.178503
vt 2.501972 5.469928
vt 2.394564 5.522893
vt 2.113015 5.178503
vt 2.168299 5.205767
vt 2.011915 5.522893
vt 1.904507 5.469928
vt 1.570833 5.185086
vt 1.626117 5.157824
vt 1.834625 5.449248
vt 1.727218 5.502213
vt 1.445669 5.165349
vt 1.500952 5.192611
vt 1.344569 5.509738
vt 1.237161 5.456773
vt 0.903489 5.192611
vt 0.958772 5.165349
vt 1.167280 5.456773
vt 1.059872 5.509738
vt 0.778322 5.165349
vt 0.833606 5.192611
vt 0.677223 5.509738
vt 0.569815 5.456773
vt 0.236142 5.192611
vt 0.291426 5.165349
vt 0.499933 5.456773
vt 0.392525 5.509738
vt 0.110977 5.050344
vt 0.166260 5.077608
vt 0.009877 5.394734
vt -0.097531 5.341769
vt -0.431204 5.027042
vt -0.375920 4.999777
vt -0.167413 5.291202
vt -0.274821 5.344170
vt -0.556370 4.999777
vt -0.501086 5.027042
vt -0.657470 5.344170
vt -0.764878 5.291202
vt 2.383930 5.568358
vt 2.383930 5.885484
vt 2.310847 5.885484
vt 2.310847 5.568358
vt 2.539313 5.597967
vt 2.539313 5.915093
vt 2.466239 5.915093
vt 2.466239 5.597967
vt 2.694712 5.597967
vt 2.694712 5.915093
vt 2.621631 5.915093
vt 2.621631 5.597967
vt 2.850102 5.597967
vt 2.850102 5.915093
vt 2.777022 5.915093
vt 2.777022 5.597967
vt 3.005495 5.597967
vt 3.005495 5.915093
vt 2.932414 5.915093
vt 2.932414 5.597967
vt 3.160887 5.597967
vt 3.160887 5.915093
vt 3.087806 5.915093
vt 3.087806 5.597967
vt 3.316281 5.597967
vt 3.316281 5.915093
vt 3.243198 5.915093
vt 3.243198 5.597967
vt 3.398588 5.597967
vt 3.471671 5.597967
vt 3.471671 5.915093
vt 3.398588 5.915093
vt 3.553981 5.317291
vt 3.627055 5.317291
vt 3.627055 5.634418
vt 3.553981 5.634418
vt 3.709373 5.317291
vt 3.782454 5.317291
vt 3.782454 5.634418
vt 3.709373 5.634418
vt 3.864764 5.317291
vt 3.937845 5.317291
vt 3.937845 5.634418
vt 3.864764 5.634418
vt 4.020156 5.190677
vt 4.093237 5.190677
vt 4.093237 5.507804
vt 4.020156 5.507804
vt 4.175548 5.212913
vt 4.248629 5.212913
vt 4.248629 5.530039
vt 4.175548 5.530039
vt 4.330939 5.212913
vt 4.404022 5.212913
vt 4.404022 5.530039
vt 4.330939 5.530039
vt 3.337934 0.698980
vt 3.337934 -1.682323
vt 3.721208 -1.582999
vt 3.721208 0.599657
vt 2.884779 0.698980
vt 2.884779 -1.682323
vt 3.268053 -1.582999
vt 3.268053 0.599657
vt 2.137961 0.744429
vt 2.137961 2.656210
vt 2.111058 2.656210
vt 2.111058 0.744429
vt 2.248955 0.744429
vt 2.248955 2.656210
vt 2.222051 2.656210
vt 2.222051 0.744429
vt 1.489491 5.112360
vt 1.489491 4.354016
vt 1.515639 4.354016
vt 1.515639 5.112360
vt 1.600485 5.112360
vt 1.600485 4.354016
vt 1.626633 4.354016
vt 1.626633 5.112360
vt 2.025258 5.112360
vt 2.025258 4.354016
vt 2.061373 4.360208
vt 2.061373 5.106164
vt 1.711479 5.112360
vt 1.711479 4.354016
vt 2.447037 5.133039
vt 2.447037 4.374697
vt 2.483152 4.380892
vt 2.483152 5.126849
vt 2.133256 5.133039
vt 2.133256 4.374697
vt -0.064427 4.944324
vt -0.064427 4.161094
vt -0.021781 4.181602
vt -0.021781 4.923815
vt 0.068766 5.004879
vt 0.068766 4.221651
vt 0.111412 4.242160
vt 0.111412 4.984372
vt 0.423489 -5.084893
vt 0.894493 -5.084893
vt 1.049431 -1.727786
vt 0.268556 -1.727786
vt 2.154999 -5.084893
vt 2.626004 -5.084893
vt 2.780938 -1.727786
vt 2.000063 -1.727786
vt 5.507477 2.489316
vt 5.507477 0.779541
vt 5.601411 0.744444
vt 5.601411 2.524416
vt 5.675639 0.774159
vt 5.675639 2.494703
vt 5.751664 2.489319
vt 5.751664 0.779544
vt 5.845598 0.744444
vt 5.845598 2.524417
vt 5.919826 0.774157
vt 5.919826 2.494701
vt -0.397894 2.660072
vt -0.397894 4.101361
vt -0.732404 4.061652
vt -0.732404 2.699789
vt -0.802286 2.660072
vt -0.802286 4.101361
vt -1.136796 4.061644
vt -1.136796 2.699780
vt -3.993619 4.945226
vt -3.993619 3.837327
vt -3.934864 3.837327
vt -3.934864 4.945226
vt -3.860425 4.945226
vt -3.860425 3.837327
vt -3.801671 3.837327
vt -3.801671 4.945226
vt -1.684941 4.919185
vt -1.684941 4.122957
vt -1.638496 4.122957
vt -1.638496 4.919185
vt -1.551748 4.919185
vt -1.551748 4.122957
vt -1.505303 4.122957
vt -1.505303 4.919185
vt -2.729603 0.571417
vt -2.729603 -1.554561
vt -2.712924 -1.554561
vt -2.712924 0.571417
vt -0.286415 2.525333
vt -0.286415 0.545797
vt -0.269734 0.545797
vt -0.269734 2.525333
vt -2.816165 0.571417
vt -2.816165 -1.554561
vt -2.799485 -1.554561
vt -2.799485 0.571417
vt -0.197620 2.525333
vt -0.197620 0.545797
vt -0.180940 0.545797
vt -0.180940 2.525333
vt -5.164820 0.578279
vt -5.164820 2.658478
vt -5.172375 2.658478
vt -5.172375 0.578279
vt -2.698532 0.620867
vt -2.698532 2.656655
vt -2.706087 2.656655
vt -2.706087 0.620867
vt -5.073805 0.578279
vt -5.073805 2.658478
vt -5.081360 2.658478
vt -5.081360 0.578279
vt -2.609736 0.620868
vt -2.609736 2.656656
vt -2.617291 2.656656
vt -2.617291 0.620868
vt -3.806456 -5.084893
vt -3.169994 -5.084893
vt -3.252720 -5.036825
vt -3.723725 -5.036825
vt -2.960631 -1.600025
vt -3.097783 -1.679718
vt -4.015817 -1.600025
vt -3.878658 -1.679718
vt -1.519976 -5.084893
vt -0.883515 -5.084893
vt -0.966245 -5.036825
vt -1.437250 -5.036825
vt -0.674153 -1.600025
vt -0.811312 -1.679718
vt -1.729338 -1.600025
vt -1.592186 -1.679718
vt 2.879278 -5.084893
vt 3.088639 -1.727786
vt 3.066322 -1.727786
vt 2.865817 -5.084893
vt 3.176601 -1.727786
vt 3.385962 -5.084893
vt 3.399423 -5.084893
vt 3.198918 -1.727786
vt 4.122414 -5.084893
vt 4.331776 -1.727786
vt 4.309457 -1.727786
vt 4.108951 -5.084893
vt 4.419734 -1.727786
vt 4.629097 -5.084893
vt 4.642559 -5.084893
vt 4.442054 -1.727786
vt 2.303900 4.312401
vt 2.303900 2.718504
vt 2.330866 2.729298
vt 2.330866 4.301607
vt 2.261855 4.329233
vt 2.261855 2.701674
vt 2.165007 4.312403
vt 2.165007 2.718506
vt 2.191973 2.729300
vt 2.191973 4.301609
vt 2.122962 4.329234
vt 2.122962 2.701674
vt 4.735659 2.507595
vt 4.619523 2.556563
vt 4.619523 0.744444
vt 4.735659 0.793409
vt 4.935450 2.507598
vt 4.819313 2.556563
vt 4.819313 0.744444
vt 4.935450 0.793412
vt 2.741260 5.960555
vt 2.741260 6.067965
vt 2.668177 6.067965
vt 2.668177 5.960555
vt 5.647154 5.421419
vt 5.647154 5.476703
vt 5.574072 5.476703
vt 5.574072 5.421419
vt 5.647154 5.212912
vt 5.574072 5.212912
vt 2.598295 5.960555
vt 2.598295 6.067965
vt 2.525198 6.067965
vt 2.525198 5.960555
vt 5.802559 5.421419
vt 5.802559 5.476703
vt 5.729463 5.476703
vt 5.729463 5.421419
vt 5.802559 5.212912
vt 5.729463 5.212912
vt 2.455318 5.960555
vt 2.455318 6.067965
vt 2.382235 6.067965
vt 2.382235 5.960555
vt 5.957939 5.421419
vt 5.957939 5.476703
vt 5.884857 5.476703
vt 5.884857 5.421419
vt 5.957939 5.212912
vt 5.884857 5.212912
vt 2.312353 5.930946
vt 2.312353 6.038357
vt 2.239269 6.038357
vt 2.239269 5.930946
vt 6.113330 5.421419
vt 6.113330 5.476703
vt 6.040246 5.476703
vt 6.040246 5.421419
vt 6.113330 5.212912
vt 6.040246 5.212912
vt 2.169388 5.930946
vt 2.169388 6.038357
vt 2.096309 6.038357
vt 2.096309 5.930946
vt 6.172375 5.730674
vt 6.172375 5.785957
vt 6.099297 5.785957
vt 6.099297 5.730674
vt 6.172375 5.522166
vt 6.099297 5.522166
vt 2.026428 5.930946
vt 2.026428 6.038357
vt 1.953349 6.038357
vt 1.953349 5.930946
vt 6.029414 5.730674
vt 6.029414 5.785957
vt 5.956336 5.785957
vt 5.956336 5.730674
vt 6.029414 5.522166
vt 5.956336 5.522166
vt 1.883466 5.930946
vt 1.883466 6.038357
vt 1.810384 6.038357
vt 1.810384 5.930946
vt 5.886454 5.730674
vt 5.886454 5.785957
vt 5.813370 5.785957
vt 5.813370 5.730674
vt 5.886454 5.522166
vt 5.813370 5.522166
vt 1.740502 6.017674
vt 1.667419 6.017674
vt 1.667419 5.910267
vt 1.740502 5.910267
vt 5.743489 5.577450
vt 5.670406 5.577450
vt 5.670406 5.522166
vt 5.743489 5.522166
vt 5.743489 5.785957
vt 5.670406 5.785957
vt 1.597538 6.025199
vt 1.524441 6.025199
vt 1.524441 5.917790
vt 1.597538 5.917790
vt 5.600524 5.577467
vt 5.527428 5.577467
vt 5.527428 5.522183
vt 5.600524 5.522183
vt 5.600524 5.785975
vt 5.527428 5.785975
vt 1.454560 6.025199
vt 1.381477 6.025199
vt 1.381477 5.917790
vt 1.454560 5.917790
vt 5.457548 5.577467
vt 5.384465 5.577467
vt 5.384465 5.522183
vt 5.457548 5.522183
vt 5.457548 5.785975
vt 5.384465 5.785975
vt 1.311594 6.025199
vt 1.238512 6.025199
vt 1.238512 5.917790
vt 1.311594 5.917790
vt 5.314583 5.577467
vt 5.241499 5.577467
vt 5.241499 5.522183
vt 5.314583 5.522183
vt 5.314583 5.785975
vt 5.241499 5.785975
vt 1.168630 6.025199
vt 1.095551 6.025199
vt 1.095551 5.917790
vt 1.168630 5.917790
vt 5.171618 5.577467
vt 5.098540 5.577467
vt 5.098540 5.522183
vt 5.171618 5.522183
vt 5.171618 5.785975
vt 5.098540 5.785975
vt 1.025670 6.025199
vt 0.952591 6.025199
vt 0.952591 5.917790
vt 1.025670 5.917790
vt 5.028657 5.577467
vt 4.955578 5.577467
vt 4.955578 5.522183
vt 5.028657 5.522183
vt 5.028657 5.785975
vt 4.955578 5.785975
vt 0.882709 6.025199
vt 0.809626 6.025199
vt 0.809626 5.917790
vt 0.882709 5.917790
vt 4.885696 5.577467
vt 4.812613 5.577467
vt 4.812613 5.522183
vt 4.885696 5.522183
vt 4.885696 5.785975
vt 4.812613 5.785975
vt 3.668914 5.787305
vt 3.668914 5.679880
vt 3.741995 5.679880
vt 3.741995 5.787305
vt 4.559414 5.421429
vt 4.559414 5.476720
vt 4.486331 5.476720
vt 4.486331 5.421429
vt 4.559414 5.212913
vt 4.486331 5.212913
vt 3.525957 6.067979
vt 3.525957 5.960555
vt 3.599031 5.960555
vt 3.599031 6.067979
vt 4.714797 5.421431
vt 4.714797 5.476722
vt 4.641722 5.476722
vt 4.641722 5.421431
vt 4.714797 5.212913
vt 4.641722 5.212913
vt 3.382994 6.067979
vt 3.382994 5.960555
vt 3.456075 5.960555
vt 3.456075 6.067979
vt 4.870196 5.421429
vt 4.870196 5.476720
vt 4.797115 5.476720
vt 4.797115 5.421429
vt 4.870196 5.212913
vt 4.797115 5.212913
vt 3.240031 6.067979
vt 3.240031 5.960555
vt 3.313112 5.960555
vt 3.313112 6.067979
vt 5.025585 5.421429
vt 5.025585 5.476720
vt 4.952506 5.476720
vt 4.952506 5.421429
vt 5.025585 5.212912
vt 4.952506 5.212912
vt 3.097069 6.067979
vt 3.097069 5.960555
vt 3.170149 5.960555
vt 3.170149 6.067979
vt 5.180979 5.421429
vt 5.180979 5.476720
vt 5.107898 5.476720
vt 5.107898 5.421429
vt 5.180979 5.212913
vt 5.107898 5.212913
vt 2.954106 6.067979
vt 2.954106 5.960555
vt 3.027187 5.960555
vt 3.027187 6.067979
vt 5.336370 5.421429
vt 5.336370 5.476720
vt 5.263288 5.476720
vt 5.263288 5.421429
vt 5.336370 5.212912
vt 5.263288 5.212912
vt 2.811141 6.067979
vt 2.811141 5.960555
vt 2.884224 5.960555
vt 2.884224 6.067979
vt 5.491764 5.421429
vt 5.491764 5.476720
vt 5.418681 5.476720
vt 5.418681 5.421429
vt 5.491764 5.212913
vt 5.418681 5.212913
vt 0.666662 5.917790
vt 0.739744 5.917790
vt 0.739744 6.025201
vt 0.666662 6.025201
vt 4.742732 5.577461
vt 4.669649 5.577461
vt 4.669649 5.522185
vt 4.742732 5.522185
vt 4.742732 5.785981
vt 4.669649 5.785981
vt 0.523706 5.917790
vt 0.596780 5.917790
vt 0.596780 6.025201
vt 0.523706 6.025201
vt 4.599768 5.577461
vt 4.526693 5.577461
vt 4.526693 5.522183
vt 4.599768 5.522183
vt 4.599768 5.785980
vt 4.526693 5.785980
vt 0.380742 5.917790
vt 0.453824 5.917790
vt 0.453824 6.025201
vt 0.380742 6.025201
vt 4.456811 5.630779
vt 4.383731 5.630779
vt 4.383731 5.575501
vt 4.456811 5.575501
vt 4.456811 5.839296
vt 4.383731 5.839296
vt 0.237780 5.917790
vt 0.310861 5.917790
vt 0.310861 6.025201
vt 0.237780 6.025201
vt 4.313849 5.630779
vt 4.240768 5.630779
vt 4.240768 5.575501
vt 4.313849 5.575501
vt 4.313849 5.839297
vt 4.240768 5.839297
vt 0.094817 5.917790
vt 0.167898 5.917790
vt 0.167898 6.025201
vt 0.094817 6.025201
vt 4.170886 5.630779
vt 4.097806 5.630779
vt 4.097806 5.575501
vt 4.170886 5.575501
vt 4.170886 5.839298
vt 4.097806 5.839298
vt -0.048145 5.830052
vt 0.024935 5.830052
vt 0.024935 5.937463
vt -0.048145 5.937463
vt 4.027924 5.735158
vt 3.954843 5.735158
vt 3.954843 5.679882
vt 4.027924 5.679882
vt 4.027924 5.943676
vt 3.954843 5.943676
vt -0.191110 5.830052
vt -0.118027 5.830052
vt -0.118027 5.937463
vt -0.191110 5.937463
vt 3.884960 5.735158
vt 3.811878 5.735158
vt 3.811878 5.679880
vt 3.884960 5.679880
vt 3.884960 5.943676
vt 3.811878 5.943676
vt -2.568541 4.077494
vt -2.568541 2.702119
vt -1.206678 2.702119
vt -1.206678 4.077494
vt 3.791090 -1.682322
vt 6.172375 -1.682322
vt 6.172375 0.698980
vt 3.791090 0.698980
vt -0.274056 -1.682322
vt 1.908584 -1.682322
vt 1.882252 -1.653986
vt -0.247714 -1.653986
vt 1.908584 0.500334
vt 1.882252 0.471993
vt -0.274056 0.500334
vt -0.247714 0.471993
vt 0.113164 2.675167
vt 0.113164 0.744429
vt 0.689883 1.326860
vt 0.689883 2.092728
vt 2.024945 0.744429
vt 1.448226 1.326860
vt 2.024945 2.675167
vt 1.448226 2.092728
vt 2.591164 5.125117
vt 2.591164 4.448518
vt 2.607909 4.465431
vt 2.607909 5.108206
vt 2.572696 5.143767
vt 2.572696 4.429858
vt 3.261119 4.448518
vt 3.244371 4.465431
vt 3.261119 5.125117
vt 3.244371 5.108206
vt 2.555033 5.162647
vt 2.555033 4.410970
vt 3.279587 4.429858
vt 3.279587 5.143767
vt 3.297246 5.162647
vt 3.297246 4.410970
vt 4.233359 4.209038
vt 4.233359 2.795258
vt 4.388308 2.638776
vt 4.388308 4.365507
vt 4.061013 4.034982
vt 4.061013 2.969331
vt 2.833485 2.795258
vt 2.678533 2.638776
vt 2.833485 4.209038
vt 2.678533 4.365507
vt 3.005829 2.969331
vt 3.005829 4.034982
vt 0.480771 4.308554
vt 0.480771 2.720630
vt 0.546281 2.786826
vt 0.546281 4.242384
vt 2.053080 2.720630
vt 1.987570 2.786826
vt 2.053080 4.308554
vt 1.987570 4.242384
vt -0.387579 4.934382
vt -0.387579 4.181017
vt -0.368940 4.161094
vt -0.368940 4.954315
vt -1.133536 4.181017
vt -1.152169 4.161094
vt -1.133536 4.934382
vt -1.152169 4.954315
vt -3.977237 3.763682
vt -2.922053 3.763682
vt -2.895696 3.791865
vt -4.003594 3.791865
vt -2.922053 2.698031
vt -2.895696 2.669831
vt -3.977237 2.698031
vt -4.003594 2.669831
vt -5.146019 3.797792
vt -4.090833 3.797792
vt -4.064477 3.825975
vt -5.172375 3.825975
vt -4.090833 2.732141
vt -4.064477 2.703941
vt -5.146019 2.732141
vt -5.172375 2.703941
vt -3.441901 4.662044
vt -2.683558 4.662044
vt -2.664617 4.682305
vt -3.460846 4.682305
vt -2.683558 3.896178
vt -2.664617 3.875928
vt -3.441901 3.896178
vt -3.460846 3.875928
vt -2.553953 4.909071
vt -1.795610 4.909071
vt -1.776664 4.929331
vt -2.572894 4.929331
vt -1.795610 4.143207
vt -1.776664 4.122957
vt -2.553953 4.143207
vt -2.572894 4.122957
vt -0.343938 0.575404
vt -2.469917 0.575404
vt -2.447025 0.554119
vt -0.366826 0.554119
vt -2.469917 -1.554561
vt -2.447025 -1.533258
vt -0.343938 -1.554561
vt -0.366826 -1.533258
vt -0.548959 2.614609
vt -2.528496 2.614609
vt -2.494619 2.583111
vt -0.582838 2.583111
vt -2.528496 0.620868
vt -2.494619 0.652373
vt -0.548959 0.620868
vt -0.582838 0.652373
vt -2.886048 0.532816
vt -4.966247 0.532816
vt -4.944044 0.512163
vt -2.908256 0.512163
vt -4.966247 -1.554561
vt -4.944044 -1.533924
vt -2.886048 -1.554561
vt -2.908256 -1.533924
vt -2.956777 2.624366
vt -4.992565 2.624366
vt -4.964439 2.598197
vt -2.984902 2.598197
vt -4.992565 0.578279
vt -4.964439 0.604456
vt -2.956777 0.578279
vt -2.984902 0.604456
vt 3.376390 4.886640
vt 3.376390 4.410970
vt 3.389852 4.410970
vt 3.389852 4.886640
vt -0.264098 4.161094
vt -0.264098 4.949703
vt -0.286415 4.949703
vt -0.286415 4.161094
vt 3.567434 4.410970
vt 3.567434 4.881973
vt 3.553981 4.881973
vt 3.553981 4.410970
vt 0.224263 4.221651
vt 0.224263 5.002526
vt 0.201959 5.002526
vt 0.201959 4.221651
vt 3.478648 4.410970
vt 3.478648 4.886640
vt 3.465185 4.886640
vt 3.465185 4.410970
vt -0.175421 4.949704
vt -0.175421 4.161094
vt -0.153102 4.161094
vt -0.153102 4.949704
vt 3.642776 4.881973
vt 3.642776 4.410970
vt 3.656248 4.410970
vt 3.656248 4.881973
vt 0.312953 5.002526
vt 0.312953 4.221651
vt 0.335288 4.221651
vt 0.335288 5.002526
vt 4.498957 2.537682
vt 4.498957 0.800075
vt 4.544743 0.744444
vt 4.544743 2.593313
vt 2.778411 0.800075
vt 2.732624 0.744444
vt 2.778411 2.537682
vt 2.732624 2.593313
vt 4.501503 2.691401
vt 4.501503 4.335117
vt 4.458189 4.387741
vt 4.458189 2.638776
vt 6.129062 4.335117
vt 6.172375 4.387741
vt 6.129062 2.691401
vt 6.172375 2.638776
vt 0.208445 5.555202
vt 0.208445 5.872330
vt 0.135362 5.872330
vt 0.135362 5.555202
vt 0.363851 5.555202
vt 0.363851 5.872330
vt 0.290755 5.872330
vt 0.290755 5.555202
vt 0.519229 5.555202
vt 0.519229 5.872330
vt 0.446146 5.872330
vt 0.446146 5.555202
vt 0.674620 5.555202
vt 0.674620 5.872330
vt 0.601538 5.872330
vt 0.601538 5.555202
vt 0.830008 5.555202
vt 0.830008 5.872330
vt 0.756929 5.872330
vt 0.756929 5.555202
vt 0.985400 5.555202
vt 0.985400 5.872330
vt 0.912321 5.872330
vt 0.912321 5.555202
vt 1.140796 5.555202
vt 1.140796 5.872330
vt 1.067713 5.872330
vt 1.067713 5.555202
vt 1.296187 5.872330
vt 1.223105 5.872330
vt 1.223105 5.555202
vt 1.296187 5.555202
vt 1.451592 5.872330
vt 1.378496 5.872330
vt 1.378496 5.555202
vt 1.451592 5.555202
vt 1.606970 5.872330
vt 1.533888 5.872330
vt 1.533888 5.555202
vt 1.606970 5.555202
vt 1.762362 5.864804
vt 1.689279 5.864804
vt 1.689279 5.547678
vt 1.762362 5.547678
vt 1.917750 5.885484
vt 1.844671 5.885484
vt 1.844671 5.568358
vt 1.917750 5.568358
vt 2.073142 5.885484
vt 2.000063 5.885484
vt 2.000063 5.568358
vt 2.073142 5.568358
vt 2.228539 5.885484
vt 2.155455 5.885484
vt 2.155455 5.568358
vt 2.228539 5.568358
vt -1.098568 5.316904
vt -0.942183 4.999777
vt -0.834759 5.052745
vt -1.043278 5.344170
vt -1.376968 4.999777
vt -1.168450 5.291202
vt -1.275873 5.344170
vt -1.432259 5.027042
vt -1.765950 5.291923
vt -1.609565 4.974796
vt -1.502141 5.027761
vt -1.710659 5.319186
vt -2.044350 4.974796
vt -1.835832 5.266221
vt -1.943255 5.319186
vt -2.099641 5.002059
vt -2.433332 5.291923
vt -2.276946 4.974796
vt -2.169523 5.027761
vt -2.378041 5.319186
vt -2.711731 4.974796
vt -2.503213 5.266221
vt -2.610637 5.319186
vt -2.767022 5.002059
vt -3.100713 5.044894
vt -2.944328 4.727767
vt -2.836904 4.780734
vt -3.045422 5.072158
vt -3.379113 4.727767
vt -3.170594 5.019191
vt -3.278018 5.072158
vt -3.434403 4.755031
vt -3.768094 5.307816
vt -3.611709 4.990689
vt -3.504286 5.043653
vt -3.712804 5.335079
vt -4.046494 4.990689
vt -3.837976 5.282114
vt -3.945400 5.335079
vt -4.101785 5.017952
vt -4.435476 4.188565
vt -4.279090 3.871439
vt -4.171667 3.924404
vt -4.380185 4.215829
vt -4.713876 3.871439
vt -4.505358 4.162862
vt -4.612781 4.215829
vt -4.769166 3.898702
vt -5.102858 4.188565
vt -4.946472 3.871439
vt -4.839048 3.924404
vt -5.047567 4.215829
vt -5.117085 4.261292
vt -4.908566 4.552716
vt -5.015990 4.605682
vt -5.172375 4.288556
vt -4.573378 4.578419
vt -4.628655 4.605682
vt -4.837173 4.314258
vt -4.729763 4.261292
vt -4.273474 4.261292
vt -4.218196 4.288556
vt -4.374582 4.605682
vt -4.481992 4.552716
vt -3.863015 5.697670
vt -3.918292 5.724933
vt -4.126811 5.433509
vt -4.019401 5.380544
vt -3.563111 5.380544
vt -3.507834 5.407806
vt -3.664220 5.724933
vt -3.771630 5.671968
vt -3.152653 5.434748
vt -3.207931 5.462011
vt -3.416449 5.170587
vt -3.309039 5.117621
vt -2.852749 5.364650
vt -2.797472 5.391913
vt -2.953858 5.709040
vt -3.061268 5.656075
vt -2.442291 5.681777
vt -2.497568 5.709040
vt -2.706087 5.417615
vt -2.598676 5.364650
vt -2.142387 5.364650
vt -2.087110 5.391913
vt -2.243495 5.709040
vt -2.350905 5.656075
vt -1.731929 5.681777
vt -1.787206 5.709040
vt -1.995724 5.417615
vt -1.888314 5.364650
vt -1.432025 5.389631
vt -1.376748 5.416897
vt -1.533133 5.734023
vt -1.640543 5.681055
vt -1.021567 5.706758
vt -1.076844 5.734023
vt -1.285362 5.442598
vt -1.177952 5.389631
vt -0.721663 5.389631
vt -0.666385 5.416897
vt -0.822771 5.734023
vt -0.930181 5.681055
vt -0.311204 5.706758
vt -0.366481 5.734023
vt -0.575000 5.442598
vt -0.467590 5.389631
vt -0.011300 5.440198
vt 0.043977 5.467461
vt -0.112409 5.784588
vt -0.219818 5.731623
vt 2.431622 0.698964
vt 2.431622 -1.682323
vt 2.814896 -1.583000
vt 2.814896 0.599640
vt 1.978466 0.599642
vt 1.978466 -1.582999
vt 2.361740 -1.682322
vt 2.361740 0.698965
vt -0.108825 2.476537
vt -0.108825 0.545797
vt -0.081921 0.545797
vt -0.081921 2.476537
vt 0.029073 0.545797
vt 0.029073 2.476535
vt 0.002170 2.476535
vt 0.002170 0.545797
vt 0.423947 5.119883
vt 0.423947 4.354017
vt 0.450095 4.354017
vt 0.450095 5.119883
vt 0.561089 4.354017
vt 0.561089 5.119884
vt 0.534941 5.119884
vt 0.534941 4.354017
vt 0.959716 5.119883
vt 0.959716 4.354016
vt 0.995830 4.360267
vt 0.995830 5.113632
vt 0.645935 5.119883
vt 0.645935 4.354016
vt 1.103827 4.354017
vt 1.103827 5.119884
vt 1.067713 5.113633
vt 1.067713 4.360269
vt 1.417608 4.354017
vt 1.417608 5.119884
vt -1.418555 4.916177
vt -1.418555 4.122957
vt -1.375908 4.143723
vt -1.375908 4.895401
vt -1.242715 4.122957
vt -1.242715 4.916178
vt -1.285362 4.895401
vt -1.285362 4.143723
vt -0.440731 -5.084893
vt 0.034939 -5.084893
vt 0.191411 -1.727786
vt -0.597198 -1.727786
vt 1.766446 -1.727786
vt 1.290776 -1.727786
vt 1.134309 -5.084893
vt 1.922919 -5.084893
vt 5.019101 2.506610
vt 5.019101 0.779880
vt 5.113037 0.744444
vt 5.113037 2.542060
vt 5.187264 0.774445
vt 5.187264 2.512052
vt 5.431451 0.779880
vt 5.431451 2.506610
vt 5.337517 2.542060
vt 5.337517 0.744444
vt 5.263288 2.512052
vt 5.263288 0.774445
vt 0.076379 4.176188
vt 0.076379 2.720630
vt 0.410889 2.760709
vt 0.410889 4.136084
vt 0.006498 2.660072
vt 0.006498 4.115632
vt -0.328012 4.075526
vt -0.328012 2.700151
vt -2.638423 2.702119
vt -2.638423 3.824153
vt -2.697178 3.824153
vt -2.697178 2.702119
vt -2.825814 3.830465
vt -2.825814 2.708431
vt -2.767059 2.708431
vt -2.767059 3.830465
vt -3.680788 3.837328
vt -3.680788 4.643704
vt -3.727232 4.643704
vt -3.727232 3.837328
vt -3.594039 4.643703
vt -3.594039 3.837327
vt -3.547595 3.837327
vt -3.547595 4.643703
vt -2.539798 -1.554561
vt -2.539798 0.575404
vt -2.556479 0.575404
vt -2.556479 -1.554561
vt -0.464006 2.614609
vt -0.464006 0.620867
vt -0.447325 0.620867
vt -0.447325 2.614609
vt -2.643041 0.575404
vt -2.643041 -1.554561
vt -2.626361 -1.554561
vt -2.626361 0.575404
vt -0.358529 0.620867
vt -0.358529 2.614609
vt -0.375210 2.614609
vt -0.375210 0.620867
vt -5.036129 -1.554562
vt -5.036129 0.532816
vt -5.043683 0.532816
vt -5.043683 -1.554562
vt -2.883677 2.624366
vt -2.883677 0.578280
vt -2.876122 0.578280
vt -2.876122 2.624366
vt -5.121120 0.532815
vt -5.121120 -1.554561
vt -5.113564 -1.554561
vt -5.113564 0.532815
vt -2.787328 0.616880
vt -2.787328 2.662967
vt -2.794882 2.662967
vt -2.794882 0.616880
vt -4.960933 -5.084893
vt -4.318159 -5.084893
vt -4.401702 -5.036825
vt -4.877372 -5.036825
vt -4.106724 -1.600025
vt -4.245230 -1.679718
vt -5.172375 -1.600025
vt -5.033839 -1.679718
vt -2.029460 -1.600025
vt -2.672235 -1.600025
vt -2.588673 -1.648093
vt -2.113004 -1.648093
vt -2.883677 -5.084893
vt -2.745140 -5.005199
vt -1.818025 -5.084893
vt -1.956531 -5.005199
vt 3.500837 -5.084893
vt 3.712272 -1.727786
vt 3.689968 -1.727786
vt 3.487385 -5.084893
vt 4.023056 -5.084893
vt 3.811620 -1.727786
vt 3.798167 -1.727786
vt 4.000752 -5.084893
vt 4.941959 -1.727786
vt 4.730517 -5.084893
vt 4.752851 -5.084893
vt 4.955431 -1.727786
vt 5.041301 -1.727786
vt 5.252743 -5.084893
vt 5.266214 -5.084893
vt 5.063635 -1.727786
vt 2.581686 4.265476
vt 2.581686 2.655754
vt 2.608651 2.666651
vt 2.608651 4.254574
vt 2.539640 4.282475
vt 2.539640 2.638759
vt 2.427713 2.655756
vt 2.427713 4.265479
vt 2.400748 4.254578
vt 2.400748 2.666653
vt 2.469758 2.638761
vt 2.469758 4.282476
vt 2.449183 2.543339
vt 2.333046 2.593298
vt 2.333046 0.744429
vt 2.449183 0.794374
vt 2.532834 0.794372
vt 2.648971 0.744426
vt 2.648971 2.593296
vt 2.532834 2.543337
vn 0.000000 0.442269 0.896882
vn 0.000000 0.442269 0.896882
vn 0.000000 0.442269 0.896882
vn 0.000000 0.442269 0.896882
vn 0.000000 0.896880 -0.442273
vn 0.000000 0.896880 -0.442273
vn 0.000000 0.896880 -0.442273
vn 0.000000 0.896880 -0.442273
vn 0.000000 -0.581880 -0.813275
vn 0.000000 -0.581880 -0.813275
vn 0.000000 -0.581880 -0.813275
vn 0.000000 -0.581880 -0.813275
vn 0.000000 -0.896866 0.442303
vn 0.000000 -0.896866 0.442303
vn 0.000000 -0.896866 0.442303
vn 0.000000 -0.896866 0.442303
vn -1.000000 0.000000 0.000000
vn -1.000000 0.000000 0.000000
vn -1.000000 0.000000 0.000000
vn -1.000000 0.000000 0.000000
vn 1.000000 0.000000 0.000000
vn 1.000000 0.000000 0.000000
vn 1.000000 0.000000 0.000000
vn 1.000000 0.000000 0.000000
vn 0.000000 0.442269 0.896882
vn 0.000000 0.442269 0.896882
vn 0.000000 0.442269 0.896882
vn 0.000000 0.442269 0.896882
vn 0.000000 0.896881 -0.442272
vn 0.000000 0.896881 -0.442272
vn 0.000000 0.896881 -0.442272
vn 0.000000 0.896881 -0.442272
vn 0.000000 -0.581880 -0.813275
vn 0.000000 -0.581880 -0.813275
vn 0.000000 -0.581880 -0.813275
vn 0.000000 -0.581880 -0.813275
vn 0.000000 -0.896869 0.442297
vn 0.000000 -0.896869 0.442297
vn 0.000000 -0.896869 0.442297
vn 0.000000 -0.896869 0.442297
vn -1.000000 -0.000000 0.000000
vn -1.000000 -0.000000 0.000000
vn -1.000000 -0.000000 0.000000
vn -1.000000 -0.000000 0.000000
vn 1.000000 -0.000000 0.000000
vn 1.000000 -0.000000 0.000000
vn 1.000000 -0.000000 0.000000
vn 1.000000 -0.000000 0.000000
vn 0.000000 0.442269 0.896883
vn 0.000000 0.442269 0.896883
vn 0.000000 0.442269 0.896883
vn 0.000000 0.442269 0.896883
vn 0.000000 0.896881 -0.442273
vn 0.000000 0.896881 -0.442273
vn 0.000000 0.896881 -0.442273
vn 0.000000 0.896881 -0.442273
vn 0.000000 -0.581880 -0.813275
vn 0.000000 -0.581880 -0.813275
vn 0.000000 -0.581880 -0.813275
vn 0.000000 -0.581880 -0.813275
vn 0.000000 -0.896869 0.442297
vn 0.000000 -0.896869 0.442297
vn 0.000000 -0.896869 0.442297
vn 0.000000 -0.896869 0.442297
vn -1.000000 0.000000 0.000000
vn -1.000000 0.000000 0.000000
vn -1.000000 0.000000 0.000000
vn -1.000000 0.000000 0.000000
vn 1.000000 0.000000 0.000000
vn 1.000000 0.000000 0.000000
vn 1.000000 0.000000 0.000000
vn 1.000000 0.000000 0.000000
vn 0.000000 0.442269 0.896882
vn 0.000000 0.442269 0.896882
vn 0.000000 0.442269 0.896882
vn 0.000000 0.442269 0.896882
vn 0.000000 0.896882 -0.442270
vn 0.000000 0.896882 -0.442270
vn 0.000000 0.896882 -0.442270
vn 0.000000 0.896882 -0.442270
vn 0.000000 -0.581880 -0.813275
vn 0.000000 -0.581880 -0.813275
vn 0.000000 -0.581880 -0.813275
vn 0.000000 -0.581880 -0.813275
vn 0.000000 -0.896869 0.442297
vn 0.000000 -0.896869 0.442297
vn 0.000000 -0.896869 0.442297
vn 0.000000 -0.896869 0.442297
vn -1.000000 0.000000 0.000000
vn -1.000000 0.000000 0.000000
vn -1.000000 0.000000 0.000000
vn -1.000000 0.000000 0.000000
vn 1.000000 0.000000 0.000000
vn 1.000000 0.000000 0.000000
vn 1.000000 0.000000 0.000000
vn 1.000000 0.000000 0.000000
vn 0.000000 0.442269 0.896882
vn 0.000000 0.442269 0.896882
vn 0.000000 0.442269 0.896882
vn 0.000000 0.442269 0.896882
vn 0.000000 0.896882 -0.442271
vn 0.000000 0.896882 -0.442271
vn 0.000000 0.896882 -0.442271
vn 0.000000 0.896882 -0.442271
vn 0.000000 -0.581880 -0.813275
vn 0.000000 -0.581880 -0.813275
vn 0.000000 -0.581880 -0.813275
vn 0.000000 -0.581880 -0.813275
vn 0.000000 -0.896867 0.442301
vn 0.000000 -0.896867 0.442301
vn 0.000000 -0.896867 0.442301
vn 0.000000 -0.896867 0.442301
vn -1.000000 0.000000 0.000000
vn -1.000000 0.000000 0.000000
vn -1.000000 0.000000 0.000000
vn -1.000000 0.000000 0.000000
vn 1.000000 0.000000 0.000000
vn 1.000000 0.000000 0.000000
vn 1.000000 0.000000 0.000000
vn 1.000000 0.000000 0.000000
vn 0.000000 0.442269 0.896883
vn 0.000000 0.442269 0.896883
vn 0.000000 0.442269 0.896883
vn 0.000000 0.442269 0.896883
vn 0.000000 0.896880 -0.442274
vn 0.000000 0.896880 -0.442274
vn 0.000000 0.896880 -0.442274
vn 0.000000 0.896880 -0.442274
vn 0.000000 -0.581880 -0.813275
vn 0.000000 -0.581880 -0.813275
vn 0.000000 -0.581880 -0.813275
vn 0.000000 -0.581880 -0.813275
vn 0.000000 -0.896867 0.442301
vn 0.000000 -0.896867 0.442301
vn 0.000000 -0.896867 0.442301
vn 0.000000 -0.896867 0.442301
vn -1.000000 -0.000000 0.000000
vn -1.000000 -0.000000 0.000000
vn -1.000000 -0.000000 0.000000
vn -1.000000 -0.000000 0.000000
vn 1.000000 -0.000000 0.000000
vn 1.000000 -0.000000 0.000000
vn 1.000000 -0.000000 0.000000
vn 1.000000 -0.000000 0.000000
vn 0.000000 0.442269 0.896882
vn 0.000000 0.442269 0.896882
vn 0.000000 0.442269 0.896882
vn 0.000000 0.442269 0.896882
vn 0.000000 0.896880 -0.442273
vn 0.000000 0.896880 -0.442273
vn 0.000000 0.896880 -0.442273
vn 0.000000 0.896880 -0.442273
vn 0.000000 -0.581880 -0.813275
vn 0.000000 -0.581880 -0.813275
vn 0.000000 -0.581880 -0.813275
vn 0.000000 -0.581880 -0.813275
vn 0.000000 -0.896866 0.442303
vn 0.000000 -0.896866 0.442303
vn 0.000000 -0.896866 0.442303
vn 0.000000 -0.896866 0.442303
vn -1.000000 0.000000 0.000000
vn -1.000000 0.000000 0.000000
vn -1.000000 0.000000 0.000000
vn -1.000000 0.000000 0.000000
vn 1.000000 -0.000000 0.000000
vn 1.000000 -0.000000 0.000000
vn 1.000000 -0.000000 0.000000
vn 1.000000 -0.000000 0.000000
vn 0.000000 0.442274 -0.896880
vn 0.000000 0.442274 -0.896880
vn 0.000000 0.442274 -0.896880
vn 0.000000 0.442274 -0.896880
vn 0.000000 0.896877 0.442281
vn 0.000000 0.896877 0.442281
vn 0.000000 0.896877 0.442281
vn 0.000000 0.896877 0.442281
vn 0.000000 -0.581880 0.813275
vn 0.000000 -0.581880 0.813275
vn 0.000000 -0.581880 0.813275
vn 0.000000 -0.581880 0.813275
vn 0.000000 -0.896866 -0.442303
vn 0.000000 -0.896866 -0.442303
vn 0.000000 -0.896866 -0.442303
vn 0.000000 -0.896866 -0.442303
vn -1.000000 0.000000 0.000000
vn -1.000000 0.000000 0.000000
vn -1.000000 0.000000 0.000000
vn -1.000000 0.000000 0.000000
vn 1.000000 0.000000 0.000000
vn 1.000000 0.000000 0.000000
vn 1.000000 0.000000 0.000000
vn 1.000000 0.000000 0.000000
vn 0.000000 0.442274 -0.896880
vn 0.000000 0.442274 -0.896880
vn 0.000000 0.442274 -0.896880
vn 0.000000 0.442274 -0.896880
vn 0.000000 0.896877 0.442280
vn 0.000000 0.896877 0.442280
vn 0.000000 0.896877 0.442280
vn 0.000000 0.896877 0.442280
vn 0.000000 -0.581880 0.813275
vn 0.000000 -0.581880 0.813275
vn 0.000000 -0.581880 0.813275
vn 0.000000 -0.581880 0.813275
vn 0.000000 -0.896869 -0.442297
vn 0.000000 -0.896869 -0.442297
vn 0.000000 -0.896869 -0.442297
vn 0.000000 -0.896869 -0.442297
vn -1.000000 0.000000 0.000000
vn -1.000000 0.000000 0.000000
vn -1.000000 0.000000 0.000000
vn -1.000000 0.000000 0.000000
vn 1.000000 0.000000 0.000000
vn 1.000000 0.000000 0.000000
vn 1.000000 0.000000 0.000000
vn 1.000000 0.000000 0.000000
vn 0.000000 0.442274 -0.896880
vn 0.000000 0.442274 -0.896880
vn 0.000000 0.442274 -0.896880
vn 0.000000 0.442274 -0.896880
vn 0.000000 0.896877 0.442281
vn 0.000000 0.896877 0.442281
vn 0.000000 0.896877 0.442281
vn 0.000000 0.896877 0.442281
vn 0.000000 -0.581880 0.813275
vn 0.000000 -0.581880 0.813275
vn 0.000000 -0.581880 0.813275
vn 0.000000 -0.581880 0.813275
vn 0.000000 -0.896869 -0.442297
vn 0.000000 -0.896869 -0.442297
vn 0.000000 -0.896869 -0.442297
vn 0.000000 -0.896869 -0.442297
vn -1.000000 0.000000 0.000000
vn -1.000000 0.000000 0.000000
vn -1.000000 0.000000 0.000000
vn -1.000000 0.000000 0.000000
vn 1.000000 -0.000000 0.000000
vn 1.000000 -0.000000 0.000000
vn 1.000000 -0.000000 0.000000
vn 1.000000 -0.000000 0.000000
vn 0.000000 0.442274 -0.896880
vn 0.000000 0.442274 -0.896880
vn 0.000000 0.442274 -0.896880
vn 0.000000 0.442274 -0.896880
vn 0.000000 0.896878 0.442278
vn 0.000000 0.896878 0.442278
vn 0.000000 0.896878 0.442278
vn 0.000000 0.896878 0.442278
vn 0.000000 -0.581880 0.813275
vn 0.000000 -0.581880 0.813275
vn 0.000000 -0.581880 0.813275
vn 0.000000 -0.581880 0.813275
vn 0.000000 -0.896869 -0.442297
vn 0.000000 -0.896869 -0.442297
vn 0.000000 -0.896869 -0.442297
vn 0.000000 -0.896869 -0.442297
vn -1.000000 0.000000 0.000000
vn -1.000000 0.000000 0.000000
vn -1.000000 0.000000 0.000000
vn -1.000000 0.000000 0.000000
vn 1.000000 0.000000 0.000000
vn 1.000000 0.000000 0.000000
vn 1.000000 0.000000 0.000000
vn 1.000000 0.000000 0.000000
vn 0.000000 0.442275 -0.896880
vn 0.000000 0.442275 -0.896880
vn 0.000000 0.442275 -0.896880
vn 0.000000 0.442275 -0.896880
vn 0.000000 0.896878 0.442278
vn 0.000000 0.896878 0.442278
vn 0.000000 0.896878 0.442278
vn 0.000000 0.896878 0.442278
vn 0.000000 -0.581879 0.813275
vn 0.000000 -0.581879 0.813275
vn 0.000000 -0.581879 0.813275
vn 0.000000 -0.581879 0.813275
vn 0.000000 -0.896867 -0.442301
vn 0.000000 -0.896867 -0.442301
vn 0.000000 -0.896867 -0.442301
vn 0.000000 -0.896867 -0.442301
vn -1.000000 -0.000000 0.000000
vn -1.000000 -0.000000 0.000000
vn -1.000000 -0.000000 0.000000
vn -1.000000 -0.000000 0.000000
vn 1.000000 -0.000000 0.000000
vn 1.000000 -0.000000 0.000000
vn 1.000000 -0.000000 0.000000
vn 1.000000 -0.000000 0.000000
vn 0.000000 0.442274 -0.896880
vn 0.000000 0.442274 -0.896880
vn 0.000000 0.442274 -0.896880
vn 0.000000 0.442274 -0.896880
vn 0.000000 0.896876 0.442281
vn 0.000000 0.896876 0.442281
vn 0.000000 0.896876 0.442281
vn 0.000000 0.896876 0.442281
vn 0.000000 -0.581880 0.813275
vn 0.000000 -0.581880 0.813275
vn 0.000000 -0.581880 0.813275
vn 0.000000 -0.581880 0.813275
vn 0.000000 -0.896867 -0.442301
vn 0.000000 -0.896867 -0.442301
vn 0.000000 -0.896867 -0.442301
vn 0.000000 -0.896867 -0.442301
vn -1.000000 0.000000 0.000000
vn -1.000000 0.000000 0.000000
vn -1.000000 0.000000 0.000000
vn -1.000000 0.000000 0.000000
vn 1.000000 0.000000 0.000000
vn 1.000000 0.000000 0.000000
vn 1.000000 0.000000 0.000000
vn 1.000000 0.000000 0.000000
vn 0.000000 0.442274 -0.896880
vn 0.000000 0.442274 -0.896880
vn 0.000000 0.442274 -0.896880
vn 0.000000 0.442274 -0.896880
vn 0.000000 0.896877 0.442281
vn 0.000000 0.896877 0.442281
vn 0.000000 0.896877 0.442281
vn 0.000000 0.896877 0.442281
vn 0.000000 -0.581880 0.813275
vn 0.000000 -0.581880 0.813275
vn 0.000000 -0.581880 0.813275
vn 0.000000 -0.581880 0.813275
vn 0.000000 -0.896866 -0.442303
vn 0.000000 -0.896866 -0.442303
vn 0.000000 -0.896866 -0.442303
vn 0.000000 -0.896866 -0.442303
vn -1.000000 0.000000 0.000000
vn -1.000000 0.000000 0.000000
vn -1.000000 0.000000 0.000000
vn -1.000000 0.000000 0.000000
vn 1.000000 0.000000 0.000000
vn 1.000000 0.000000 0.000000
vn 1.000000 0.000000 0.000000
vn 1.000000 0.000000 0.000000
vn -0.896878 0.442279 0.000000
vn -0.896878 0.442279 0.000000
vn -0.896878 0.442279 0.000000
vn -0.896878 0.442279 0.000000
vn 0.442229 0.896902 0.000000
vn 0.442229 0.896902 0.000000
vn 0.442229 0.896902 0.000000
vn 0.442229 0.896902 0.000000
vn 0.813260 -0.581900 0.000000
vn 0.813260 -0.581900 0.000000
vn 0.813260 -0.581900 0.000000
vn 0.813260 -0.581900 0.000000
vn -0.442258 -0.896888 0.000000
vn -0.442258 -0.896888 0.000000
vn -0.442258 -0.896888 0.000000
vn -0.442258 -0.896888 0.000000
vn 0.000000 0.000000 -1.000000
vn 0.000000 0.000000 -1.000000
vn 0.000000 0.000000 -1.000000
vn 0.000000 0.000000 -1.000000
vn 0.000000 0.000000 1.000000
vn 0.000000 0.000000 1.000000
vn 0.000000 0.000000 1.000000
vn 0.000000 0.000000 1.000000
vn -0.896877 0.442279 0.000000
vn -0.896877 0.442279 0.000000
vn -0.896877 0.442279 0.000000
vn -0.896877 0.442279 0.000000
vn 0.442229 0.896902 0.000000
vn 0.442229 0.896902 0.000000
vn 0.442229 0.896902 0.000000
vn 0.442229 0.896902 0.000000
vn 0.813260 -0.581900 0.000000
vn 0.813260 -0.581900 0.000000
vn 0.813260 -0.581900 0.000000
vn 0.813260 -0.581900 0.000000
vn -0.442258 -0.896888 0.000000
vn -0.442258 -0.896888 0.000000
vn -0.442258 -0.896888 0.000000
vn -0.442258 -0.896888 0.000000
vn 0.000000 0.000000 -1.000000
vn 0.000000 0.000000 -1.000000
vn 0.000000 0.000000 -1.000000
vn 0.000000 0.000000 -1.000000
vn -0.000000 0.000000 1.000000
vn -0.000000 0.000000 1.000000
vn -0.000000 0.000000 1.000000
vn -0.000000 0.000000 1.000000
vn -0.896878 0.442279 0.000000
vn -0.896878 0.442279 0.000000
vn -0.896878 0.442279 0.000000
vn -0.896878 0.442279 0.000000
vn 0.442229 0.896902 0.000000
vn 0.442229 0.896902 0.000000
vn 0.442229 0.896902 0.000000
vn 0.442229 0.896902 0.000000
vn 0.813260 -0.581900 0.000000
vn 0.813260 -0.581900 0.000000
vn 0.813260 -0.581900 0.000000
vn 0.813260 -0.581900 0.000000
vn -0.442258 -0.896888 0.000000
vn -0.442258 -0.896888 0.000000
vn -0.442258 -0.896888 0.000000
vn -0.442258 -0.896888 0.000000
vn -0.000000 0.000000 -1.000000
vn -0.000000 0.000000 -1.000000
vn -0.000000 0.000000 -1.000000
vn -0.000000 0.000000 -1.000000
vn -0.000000 0.000000 1.000000
vn -0.000000 0.000000 1.000000
vn -0.000000 0.000000 1.000000
vn -0.000000 0.000000 1.000000
vn -0.896878 0.442279 0.000000
vn -0.896878 0.442279 0.000000
vn -0.896878 0.442279 0.000000
vn -0.896878 0.442279 0.000000
vn 0.442229 0.896902 0.000000
vn 0.442229 0.896902 0.000000
vn 0.442229 0.896902 0.000000
vn 0.442229 0.896902 0.000000
vn 0.813260 -0.581900 0.000000
vn 0.813260 -0.581900 0.000000
vn 0.813260 -0.581900 0.000000
vn 0.813260 -0.581900 0.000000
vn -0.442258 -0.896888 0.000000
vn -0.442258 -0.896888 0.000000
vn -0.442258 -0.896888 0.000000
vn -0.442258 -0.896888 0.000000
vn -0.000000 0.000000 -1.000000
vn -0.000000 0.000000 -1.000000
vn -0.000000 0.000000 -1.000000
vn -0.000000 0.000000 -1.000000
vn -0.000000 0.000000 1.000000
vn -0.000000 0.000000 1.000000
vn -0.000000 0.000000 1.000000
vn -0.000000 0.000000 1.000000
vn -0.896878 0.442279 0.000000
vn -0.896878 0.442279 0.000000
vn -0.896878 0.442279 0.000000
vn -0.896878 0.442279 0.000000
vn 0.442229 0.896902 0.000000
vn 0.442229 0.896902 0.000000
vn 0.442229 0.896902 0.000000
vn 0.442229 0.896902 0.000000
vn 0.813260 -0.581900 0.000000
vn 0.813260 -0.581900 0.000000
vn 0.813260 -0.581900 0.000000
vn 0.813260 -0.581900 0.000000
vn -0.442258 -0.896888 0.000000
vn -0.442258 -0.896888 0.000000
vn -0.442258 -0.896888 0.000000
vn -0.442258 -0.896888 0.000000
vn 0.000000 0.000000 -1.000000
vn 0.000000 0.000000 -1.000000
vn 0.000000 0.000000 -1.000000
vn 0.000000 0.000000 -1.000000
vn 0.000000 0.000000 1.000000
vn 0.000000 0.000000 1.000000
vn 0.000000 0.000000 1.000000
vn 0.000000 0.000000 1.000000
vn -0.896877 0.442279 0.000000
vn -0.896877 0.442279 0.000000
vn -0.896877 0.442279 0.000000
vn -0.896877 0.442279 0.000000
vn 0.442229 0.896902 0.000000
vn 0.442229 0.896902 0.000000
vn 0.442229 0.896902 0.000000
vn 0.442229 0.896902 0.000000
vn 0.813260 -0.581900 0.000000
vn 0.813260 -0.581900 0.000000
vn 0.813260 -0.581900 0.000000
vn 0.813260 -0.581900 0.000000
vn -0.442258 -0.896888 0.000000
vn -0.442258 -0.896888 0.000000
vn -0.442258 -0.896888 0.000000
vn -0.442258 -0.896888 0.000000
vn -0.000000 0.000000 -1.000000
vn -0.000000 0.000000 -1.000000
vn -0.000000 0.000000 -1.000000
vn -0.000000 0.000000 -1.000000
vn -0.000000 0.000000 1.000000
vn -0.000000 0.000000 1.000000
vn -0.000000 0.000000 1.000000
vn -0.000000 0.000000 1.000000
vn -0.896878 0.442279 0.000000
vn -0.896878 0.442279 0.000000
vn -0.896878 0.442279 0.000000
vn -0.896878 0.442279 0.000000
vn 0.442229 0.896902 0.000000
vn 0.442229 0.896902 0.000000
vn 0.442229 0.896902 0.000000
vn 0.442229 0.896902 0.000000
vn 0.813260 -0.581900 0.000000
vn 0.813260 -0.581900 0.000000
vn 0.813260 -0.581900 0.000000
vn 0.813260 -0.581900 0.000000
vn -0.442257 -0.896888 0.000000
vn -0.442257 -0.896888 0.000000
vn -0.442257 -0.896888 0.000000
vn -0.442257 -0.896888 0.000000
vn 0.000000 0.000000 -1.000000
vn 0.000000 0.000000 -1.000000
vn 0.000000 0.000000 -1.000000
vn 0.000000 0.000000 -1.000000
vn 0.000000 0.000000 1.000000
vn 0.000000 0.000000 1.000000
vn 0.000000 0.000000 1.000000
vn 0.000000 0.000000 1.000000
vn 0.896878 0.442279 0.000000
vn 0.896878 0.442279 0.000000
vn 0.896878 0.442279 0.000000
vn 0.896878 0.442279 0.000000
vn -0.442273 0.896881 0.000000
vn -0.442273 0.896881 0.000000
vn -0.442273 0.896881 0.000000
vn -0.442273 0.896881 0.000000
vn -0.813260 -0.581900 0.000000
vn -0.813260 -0.581900 0.000000
vn -0.813260 -0.581900 0.000000
vn -0.813260 -0.581900 0.000000
vn 0.442343 -0.896846 0.000000
vn 0.442343 -0.896846 0.000000
vn 0.442343 -0.896846 0.000000
vn 0.442343 -0.896846 0.000000
vn -0.000000 0.000000 -1.000000
vn -0.000000 0.000000 -1.000000
vn -0.000000 0.000000 -1.000000
vn -0.000000 0.000000 -1.000000
vn 0.000000 0.000000 1.000000
vn 0.000000 0.000000 1.000000
vn 0.000000 0.000000 1.000000
vn 0.000000 0.000000 1.000000
vn 0.896877 0.442279 0.000000
vn 0.896877 0.442279 0.000000
vn 0.896877 0.442279 0.000000
vn 0.896877 0.442279 0.000000
vn -0.442273 0.896881 0.000000
vn -0.442273 0.896881 0.000000
vn -0.442273 0.896881 0.000000
vn -0.442273 0.896881 0.000000
vn -0.813260 -0.581900 0.000000
vn -0.813260 -0.581900 0.000000
vn -0.813260 -0.581900 0.000000
vn -0.813260 -0.581900 0.000000
vn 0.442342 -0.896846 0.000000
vn 0.442342 -0.896846 0.000000
vn 0.442342 -0.896846 0.000000
vn 0.442342 -0.896846 0.000000
vn 0.000000 0.000000 -1.000000
vn 0.000000 0.000000 -1.000000
vn 0.000000 0.000000 -1.000000
vn 0.000000 0.000000 -1.000000
vn 0.000000 0.000000 1.000000
vn 0.000000 0.000000 1.000000
vn 0.000000 0.000000 1.000000
vn 0.000000 0.000000 1.000000
vn 0.896878 0.442279 0.000000
vn 0.896878 0.442279 0.000000
vn 0.896878 0.442279 0.000000
vn 0.896878 0.442279 0.000000
vn -0.442273 0.896881 0.000000
vn -0.442273 0.896881 0.000000
vn -0.442273 0.896881 0.000000
vn -0.442273 0.896881 0.000000
vn -0.813260 -0.581900 0.000000
vn -0.813260 -0.581900 0.000000
vn -0.813260 -0.581900 0.000000
vn -0.813260 -0.581900 0.000000
vn 0.442343 -0.896846 0.000000
vn 0.442343 -0.896846 0.000000
vn 0.442343 -0.896846 0.000000
vn 0.442343 -0.896846 0.000000
vn 0.000000 0.000000 -1.000000
vn 0.000000 0.000000 -1.000000
vn 0.000000 0.000000 -1.000000
vn 0.000000 0.000000 -1.000000
vn 0.000000 0.000000 1.000000
vn 0.000000 0.000000 1.000000
vn 0.000000 0.000000 1.000000
vn 0.000000 0.000000 1.000000
vn 0.896878 0.442279 0.000000
vn 0.896878 0.442279 0.000000
vn 0.896878 0.442279 0.000000
vn 0.896878 0.442279 0.000000
vn -0.442273 0.896881 0.000000
vn -0.442273 0.896881 0.000000
vn -0.442273 0.896881 0.000000
vn -0.442273 0.896881 0.000000
vn -0.813260 -0.581900 0.000000
vn -0.813260 -0.581900 0.000000
vn -0.813260 -0.581900 0.000000
vn -0.813260 -0.581900 0.000000
vn 0.442342 -0.896846 0.000000
vn 0.442342 -0.896846 0.000000
vn 0.442342 -0.896846 0.000000
vn 0.442342 -0.896846 0.000000
vn 0.000000 0.000000 -1.000000
vn 0.000000 0.000000 -1.000000
vn 0.000000 0.000000 -1.000000
vn 0.000000 0.000000 -1.000000
vn -0.000000 0.000000 1.000000
vn -0.000000 0.000000 1.000000
vn -0.000000 0.000000 1.000000
vn -0.000000 0.000000 1.000000
vn 0.896878 0.442279 0.000000
vn 0.896878 0.442279 0.000000
vn 0.896878 0.442279 0.000000
vn 0.896878 0.442279 0.000000
vn -0.442273 0.896881 0.000000
vn -0.442273 0.896881 0.000000
vn -0.442273 0.896881 0.000000
vn -0.442273 0.896881 0.000000
vn -0.813260 -0.581900 0.000000
vn -0.813260 -0.581900 0.000000
vn -0.813260 -0.581900 0.000000
vn -0.813260 -0.581900 0.000000
vn 0.442342 -0.896846 0.000000
vn 0.442342 -0.896846 0.000000
vn 0.442342 -0.896846 0.000000
vn 0.442342 -0.896846 0.000000
vn 0.000000 0.000000 -1.000000
vn 0.000000 0.000000 -1.000000
vn 0.000000 0.000000 -1.000000
vn 0.000000 0.000000 -1.000000
vn 0.000000 0.000000 1.000000
vn 0.000000 0.000000 1.000000
vn 0.000000 0.000000 1.000000
vn 0.000000 0.000000 1.000000
vn 0.896877 0.442279 0.000000
vn 0.896877 0.442279 0.000000
vn 0.896877 0.442279 0.000000
vn 0.896877 0.442279 0.000000
vn -0.442273 0.896881 0.000000
vn -0.442273 0.896881 0.000000
vn -0.442273 0.896881 0.000000
vn -0.442273 0.896881 0.000000
vn -0.813260 -0.581900 0.000000
vn -0.813260 -0.581900 0.000000
vn -0.813260 -0.581900 0.000000
vn -0.813260 -0.581900 0.000000
vn 0.442342 -0.896846 0.000000
vn 0.442342 -0.896846 0.000000
vn 0.442342 -0.896846 0.000000
vn 0.442342 -0.896846 0.000000
vn 0.000000 0.000000 -1.000000
vn 0.000000 0.000000 -1.000000
vn 0.000000 0.000000 -1.000000
vn 0.000000 0.000000 -1.000000
vn 0.000000 0.000000 1.000000
vn 0.000000 0.000000 1.000000
vn 0.000000 0.000000 1.000000
vn 0.000000 0.000000 1.000000
vn 0.896878 0.442279 0.000000
vn 0.896878 0.442279 0.000000
vn 0.896878 0.442279 0.000000
vn 0.896878 0.442279 0.000000
vn -0.442273 0.896881 0.000000
vn -0.442273 0.896881 0.000000
vn -0.442273 0.896881 0.000000
vn -0.442273 0.896881 0.000000
vn -0.813260 -0.581900 0.000000
vn -0.813260 -0.581900 0.000000
vn -0.813260 -0.581900 0.000000
vn -0.813260 -0.581900 0.000000
vn 0.442342 -0.896846 0.000000
vn 0.442342 -0.896846 0.000000
vn 0.442342 -0.896846 0.000000
vn 0.442342 -0.896846 0.000000
vn -0.000001 0.000000 -1.000000
vn -0.000001 0.000000 -1.000000
vn -0.000001 0.000000 -1.000000
vn -0.000001 0.000000 -1.000000
vn -0.000000 0.000000 1.000000
vn -0.000000 0.000000 1.000000
vn -0.000000 0.000000 1.000000
vn -0.000000 0.000000 1.000000
vn 0.000000 0.250858 0.968024
vn 0.000000 0.250858 0.968024
vn 0.000000 0.250858 0.968024
vn 0.000000 0.250858 0.968024
vn 0.000000 1.000000 0.000000
vn 0.000000 1.000000 0.000000
vn 0.000000 1.000000 0.000000
vn 0.000000 1.000000 0.000000
vn 0.000000 0.250858 -0.968024
vn 0.000000 0.250858 -0.968024
vn 0.000000 0.250858 -0.968024
vn 0.000000 0.250858 -0.968024
vn 0.000000 -1.000000 0.000000
vn 0.000000 -1.000000 0.000000
vn 0.000000 -1.000000 0.000000
vn 0.000000 -1.000000 0.000000
vn 0.968024 0.250857 0.000000
vn 0.968024 0.250857 0.000000
vn 0.968024 0.250857 0.000000
vn 0.968024 0.250857 0.000000
vn -0.968024 0.250857 0.000000
vn -0.968024 0.250857 0.000000
vn -0.968024 0.250857 0.000000
vn -0.968024 0.250857 0.000000
vn 0.000000 1.000000 0.000001
vn 0.000000 1.000000 0.000001
vn 0.000000 1.000000 0.000000
vn 0.000000 1.000000 0.000000
vn 0.000000 1.000000 -0.000000
vn 0.000000 1.000000 -0.000000
vn 0.000000 1.000000 -0.000000
vn 0.000000 1.000000 -0.000000
vn 0.000000 0.000000 -1.000000
vn 0.000000 0.000000 -1.000000
vn 0.000000 0.000000 -1.000000
vn 0.000000 0.000000 -1.000000
vn -1.000000 0.000000 0.000000
vn -1.000000 0.000000 0.000000
vn -1.000000 0.000000 0.000000
vn -1.000000 0.000000 0.000000
vn 0.000000 0.000000 1.000000
vn 0.000000 0.000000 1.000000
vn 0.000000 0.000000 1.000000
vn 0.000000 0.000000 1.000000
vn 1.000000 0.000000 0.000000
vn 1.000000 0.000000 0.000000
vn 1.000000 0.000000 0.000000
vn 1.000000 0.000000 0.000000
vn 0.000000 1.000000 0.000000
vn 0.000000 1.000000 0.000000
vn 0.000000 1.000000 0.000000
vn 0.000000 1.000000 0.000000
vn 0.000000 1.000000 0.000000
vn 0.000000 1.000000 0.000000
vn 0.000000 1.000000 0.000000
vn 0.000000 1.000000 0.000000
vn 0.000000 0.000000 1.000000
vn 0.000000 0.000000 1.000000
vn 0.000000 0.000000 1.000000
vn 0.000000 0.000000 1.000000
vn 1.000000 0.000000 0.000000
vn 1.000000 0.000000 0.000000
vn 1.000000 0.000000 0.000000
vn 1.000000 0.000000 0.000000
vn 0.000000 0.000000 -1.000000
vn 0.000000 0.000000 -1.000000
vn 0.000000 0.000000 -1.000000
vn 0.000000 0.000000 -1.000000
vn -1.000000 0.000000 0.000000
vn -1.000000 0.000000 0.000000
vn -1.000000 0.000000 0.000000
vn -1.000000 0.000000 0.000000
vn 0.000000 0.015860 0.999874
vn 0.000000 0.015860 0.999874
vn 0.000000 0.169087 0.985601
vn 0.000000 0.169087 0.985601
vn 0.999872 0.016017 0.000000
vn 0.999872 0.016018 0.000000
vn 0.985349 0.170552 0.000000
vn 0.985349 0.170552 0.000000
vn 0.000000 0.015846 -0.999874
vn 0.000000 0.015846 -0.999874
vn 0.000000 0.168947 -0.985625
vn 0.000000 0.168947 -0.985625
vn -0.999872 0.016018 0.000000
vn -0.999872 0.016017 0.000000
vn -0.985349 0.170553 0.000000
vn -0.985349 0.170553 0.000000
vn 0.000000 0.433398 0.901203
vn 0.000000 0.433398 0.901203
vn 0.000000 0.433398 0.901203
vn 0.000000 0.433398 0.901203
vn 0.899077 0.437791 0.000000
vn 0.899077 0.437791 0.000000
vn 0.899077 0.437791 0.000000
vn 0.899077 0.437791 0.000000
vn 0.000000 0.433375 -0.901214
vn 0.000000 0.433375 -0.901214
vn 0.000000 0.433375 -0.901214
vn 0.000000 0.433375 -0.901214
vn -0.898990 0.437970 0.000000
vn -0.898990 0.437970 0.000000
vn -0.898990 0.437970 0.000000
vn -0.898990 0.437970 0.000000
vn 0.000000 0.517567 0.855643
vn 0.000000 0.517567 0.855642
vn 0.000000 0.517567 0.855643
vn 0.000000 0.517567 0.855642
vn 0.853238 0.521522 0.000000
vn 0.853238 0.521522 0.000000
vn 0.853238 0.521522 0.000000
vn 0.853238 0.521522 0.000000
vn 0.000000 0.517567 -0.855643
vn 0.000000 0.517567 -0.855643
vn 0.000000 0.517567 -0.855643
vn 0.000000 0.517567 -0.855643
vn -0.853369 0.521307 0.000000
vn -0.853369 0.521307 0.000000
vn -0.853369 0.521307 0.000000
vn -0.853369 0.521307 0.000000
vn 0.000000 1.000000 0.000002
vn 0.000000 1.000000 0.000002
vn 0.000000 1.000000 0.000002
vn 0.000000 1.000000 0.000002
vn 0.000000 1.000000 -0.000002
vn 0.000000 1.000000 -0.000002
vn 0.000000 1.000000 -0.000002
vn 0.000000 1.000000 -0.000002
vn 0.000000 -0.059619 0.998221
vn 0.000000 -0.059619 0.998221
vn 0.000000 -0.059619 0.998221
vn 0.000000 -0.059619 0.998221
vn 0.998184 -0.060235 0.000000
vn 0.998184 -0.060235 0.000000
vn 0.998184 -0.060235 0.000000
vn 0.998184 -0.060235 0.000000
vn 0.000000 -0.059619 -0.998221
vn 0.000000 -0.059619 -0.998221
vn 0.000000 -0.059619 -0.998221
vn 0.000000 -0.059619 -0.998221
vn -0.998184 -0.060234 0.000000
vn -0.998184 -0.060234 0.000000
vn -0.998184 -0.060234 0.000000
vn -0.998184 -0.060234 0.000000
vn 0.000000 -0.762167 0.647381
vn 0.000000 -0.762167 0.647381
vn 0.000000 -0.885607 0.464435
vn 0.000000 -0.885605 0.464439
vn 0.643625 -0.765341 0.000000
vn 0.643625 -0.765341 0.000000
vn 0.461551 -0.887114 0.000000
vn 0.461551 -0.887114 0.000000
vn 0.000000 -0.762163 -0.647386
vn 0.000000 -0.762163 -0.647386
vn 0.000000 -0.885607 -0.464436
vn 0.000000 -0.885609 -0.464432
vn -0.643663 -0.765309 0.000000
vn -0.643663 -0.765309 0.000000
vn -0.461580 -0.887098 0.000000
vn -0.461581 -0.887098 0.000000
vn 0.000000 -0.924601 0.380938
vn 0.000000 -0.924601 0.380938
vn 0.377741 -0.925911 0.000000
vn 0.377741 -0.925911 0.000000
vn 0.000000 -0.924603 -0.380933
vn 0.000000 -0.924603 -0.380933
vn -0.377768 -0.925900 0.000000
vn -0.377768 -0.925900 0.000000
vn 0.000000 -0.350029 0.936739
vn 0.000000 -0.350029 0.936739
vn 0.000000 -0.350029 0.936739
vn 0.000000 -0.350029 0.936739
vn 0.935637 -0.352965 0.000000
vn 0.935637 -0.352965 0.000000
vn 0.935637 -0.352965 0.000000
vn 0.935637 -0.352965 0.000000
vn 0.000000 -0.350009 -0.936747
vn 0.000000 -0.350009 -0.936746
vn 0.000000 -0.350009 -0.936747
vn 0.000000 -0.350009 -0.936746
vn -0.935593 -0.353080 0.000000
vn -0.935593 -0.353080 0.000000
vn -0.935593 -0.353080 0.000000
vn -0.935593 -0.353080 0.000000
vn 0.000000 0.371632 0.928380
vn 0.000000 0.371632 0.928380
vn 0.000000 0.371632 0.928380
vn 0.000000 0.371632 0.928380
vn 0.927137 0.374724 0.000000
vn 0.927137 0.374724 0.000000
vn 0.927137 0.374724 0.000000
vn 0.927137 0.374724 0.000000
vn 0.000000 0.371653 -0.928372
vn 0.000000 0.371653 -0.928372
vn 0.000000 0.371653 -0.928372
vn 0.000000 0.371653 -0.928372
vn -0.927104 0.374805 0.000000
vn -0.927104 0.374805 0.000000
vn -0.927104 0.374805 0.000000
vn -0.927104 0.374805 0.000000
vn 0.000000 1.000000 0.000003
vn 0.000000 1.000000 0.000003
vn 0.000000 1.000000 0.000003
vn 0.000000 1.000000 0.000003
vn 0.000000 1.000000 -0.000002
vn 0.000000 1.000000 -0.000002
vn 0.000000 1.000000 -0.000002
vn 0.000000 1.000000 -0.000002
vn 0.000000 0.117902 -0.993025
vn 0.000000 0.117902 -0.993025
vn 0.000000 0.117902 -0.993025
vn 0.000000 0.117902 -0.993025
vn -0.992899 0.118964 0.000000
vn -0.992899 0.118964 0.000000
vn -0.992899 0.118964 0.000000
vn -0.992899 0.118964 0.000000
vn 0.000000 0.117877 0.993028
vn 0.000000 0.117877 0.993028
vn 0.000000 0.117877 0.993028
vn 0.000000 0.117877 0.993028
vn 0.992890 0.119040 0.000000
vn 0.992889 0.119040 0.000000
vn 0.992890 0.119040 0.000000
vn 0.992890 0.119040 0.000000
vn -1.000000 0.000000 0.000000
vn -1.000000 0.000000 0.000000
vn -1.000000 0.000000 0.000000
vn -1.000000 0.000000 0.000000
vn 0.000000 0.000000 -1.000000
vn 0.000000 0.000000 -1.000000
vn 0.000000 0.000000 -1.000000
vn 0.000000 0.000000 -1.000000
vn 1.000000 0.000000 0.000000
vn 1.000000 0.000000 0.000000
vn 1.000000 0.000000 0.000000
vn 1.000000 0.000000 0.000000
vn 0.000000 0.000000 1.000000
vn 0.000000 0.000000 1.000000
vn 0.000000 0.000000 1.000000
vn 0.000000 0.000000 1.000000
vn -1.000000 0.000000 0.000000
vn -1.000000 0.000000 0.000000
vn -1.000000 0.000000 0.000000
vn -1.000000 0.000000 0.000000
vn 0.000000 0.000000 -1.000000
vn 0.000000 0.000000 -1.000000
vn 0.000000 0.000000 -1.000000
vn 0.000000 0.000000 -1.000000
vn 1.000000 0.000000 0.000000
vn 1.000000 0.000000 0.000000
vn 1.000000 0.000000 0.000000
vn 1.000000 0.000000 0.000000
vn 0.000000 0.000000 1.000000
vn 0.000000 0.000000 1.000000
vn 0.000000 0.000000 1.000000
vn 0.000000 0.000000 1.000000
vn -1.000000 0.000000 0.000000
vn -1.000000 0.000000 0.000000
vn 0.000000 0.000000 -1.000000
vn 0.000000 0.000000 -1.000000
vn 1.000000 0.000000 0.000000
vn 1.000000 0.000000 0.000000
vn 0.000000 0.000000 1.000000
vn 0.000000 0.000000 1.000000
vn 0.000000 -1.000000 -0.000001
vn 0.000000 -1.000000 -0.000001
vn 0.000000 -1.000000 -0.000001
vn 0.000000 -1.000000 -0.000001
vn 0.000000 1.000000 0.000000
vn 0.000000 1.000000 0.000000
vn 0.000000 1.000000 0.000000
vn 0.000000 1.000000 0.000000
vn 0.000000 -1.000000 0.000001
vn 0.000000 -1.000000 0.000001
vn 0.000000 1.000000 0.000001
vn 0.000000 1.000000 0.000001
vn 0.000000 -1.000000 0.000001
vn 0.000000 -1.000000 0.000001
vn 0.000000 1.000000 0.000001
vn 0.000000 1.000000 0.000001
vn 0.000000 -1.000000 -0.000006
vn 0.000000 -1.000000 0.000006
vn 0.000000 -1.000000 0.000006
vn 0.000000 -1.000000 -0.000005
vn 0.000000 1.000000 -0.000007
vn 0.000000 1.000000 0.000007
vn 0.000000 1.000000 0.000007
vn 0.000000 1.000000 -0.000006
vn 0.000000 -1.000000 -0.000006
vn 0.000000 -1.000000 -0.000005
vn 0.000000 1.000000 0.000007
vn 0.000000 1.000000 0.000007
vn 0.000000 -1.000000 0.000006
vn 0.000000 -1.000000 0.000006
vn 0.000000 1.000000 -0.000007
vn 0.000000 1.000000 -0.000006
vn 0.000000 -1.000000 0.000000
vn 0.000000 -1.000000 0.000000
vn 0.000000 -1.000000 0.000000
vn 0.000000 -1.000000 0.000000
vn 0.000000 1.000000 -0.000002
vn 0.000000 1.000000 0.000001
vn 0.000000 1.000000 0.000001
vn 0.000000 1.000000 -0.000001
vn 0.000000 -1.000000 0.000000
vn 0.000000 -1.000000 0.000000
vn 0.000000 1.000000 0.000001
vn 0.000000 1.000000 0.000001
vn 0.000000 -1.000000 0.000000
vn 0.000000 -1.000000 0.000000
vn 0.000000 1.000000 -0.000002
vn 0.000000 1.000000 -0.000001
vn 0.000000 1.000000 -0.000000
vn 0.000000 1.000000 0.000001
vn 0.000000 1.000000 0.000001
vn 0.000000 1.000000 -0.000000
vn 0.000000 1.000000 -0.000000
vn 0.000000 1.000000 -0.000000
vn 0.000000 1.000000 0.000001
vn 0.000000 1.000000 0.000001
vn 0.000000 1.000000 0.000000
vn 0.000000 1.000000 -0.000000
vn 0.000000 1.000000 -0.000000
vn 0.000000 1.000000 0.000000
vn 0.000000 1.000000 0.000000
vn 0.000000 1.000000 0.000000
vn 0.000000 1.000000 -0.000000
vn 0.000000 1.000000 -0.000000
vn -1.000000 0.000000 0.000000
vn -1.000000 0.000000 0.000000
vn -1.000000 0.000000 0.000000
vn -1.000000 0.000000 0.000000
vn 1.000000 0.000000 0.000000
vn 1.000000 0.000000 0.000000
vn 1.000000 0.000000 0.000000
vn 1.000000 0.000000 0.000000
vn 0.000000 0.000000 -1.000000
vn 0.000000 0.000000 -1.000000
vn 0.000000 0.000000 -1.000000
vn 0.000000 0.000000 -1.000000
vn 0.000000 0.000000 1.000000
vn 0.000000 0.000000 1.000000
vn 0.000000 0.000000 1.000000
vn 0.000000 0.000000 1.000000
vn 1.000000 0.000000 0.000000
vn 1.000000 0.000000 0.000000
vn 1.000000 0.000000 0.000000
vn 1.000000 0.000000 0.000000
vn -1.000000 0.000000 0.000000
vn -1.000000 0.000000 0.000000
vn -1.000000 0.000000 0.000000
vn -1.000000 0.000000 0.000000
vn 0.000000 0.000000 1.000000
vn 0.000000 0.000000 1.000000
vn 0.000000 0.000000 1.000000
vn 0.000000 0.000000 1.000000
vn 0.000000 0.000000 -1.000000
vn 0.000000 0.000000 -1.000000
vn 0.000000 0.000000 -1.000000
vn 0.000000 0.000000 -1.000000
vn 0.000000 1.000000 -0.000000
vn 0.000000 1.000000 -0.000000
vn 0.000000 1.000000 -0.000000
vn 0.000000 1.000000 -0.000000
vn 0.000000 1.000000 -0.000000
vn 0.000000 1.000000 -0.000000
vn 0.000000 1.000000 -0.000000
vn 0.000000 1.000000 -0.000000
vn 0.000000 1.000000 -0.000001
vn 0.000000 1.000000 0.000000
vn 0.000000 1.000000 0.000000
vn 0.000000 1.000000 -0.000001
vn 0.000000 1.000000 -0.000001
vn 0.000000 1.000000 -0.000001
vn 0.000000 1.000000 0.000000
vn 0.000000 1.000000 0.000000
vn 1.000000 0.000000 0.000000
vn 1.000000 0.000000 0.000000
vn 1.000000 0.000000 0.000000
vn 1.000000 0.000000 0.000000
vn -1.000000 0.000000 0.000000
vn -1.000000 0.000000 0.000000
vn -1.000000 0.000000 0.000000
vn -1.000000 0.000000 0.000000
vn 0.000000 0.000000 1.000000
vn 0.000000 0.000000 1.000000
vn 0.000000 0.000000 1.000000
vn 0.000000 0.000000 1.000000
vn 0.000000 0.000000 -1.000000
vn 0.000000 0.000000 -1.000000
vn 0.000000 0.000000 -1.000000
vn 0.000000 0.000000 -1.000000
vn -1.000000 0.000000 0.000000
vn -1.000000 0.000000 0.000000
vn -1.000000 0.000000 0.000000
vn -1.000000 0.000000 0.000000
vn 1.000000 0.000000 0.000000
vn 1.000000 0.000000 0.000000
vn 1.000000 0.000000 0.000000
vn 1.000000 0.000000 0.000000
vn 0.000000 0.000000 -1.000000
vn 0.000000 0.000000 -1.000000
vn 0.000000 0.000000 -1.000000
vn 0.000000 0.000000 -1.000000
vn 0.000000 0.000000 1.000000
vn 0.000000 0.000000 1.000000
vn 0.000000 0.000000 1.000000
vn 0.000000 0.000000 1.000000
vn -0.008482 -0.059563 0.998189
vn 0.008484 -0.059562 0.998189
vn 0.008036 -0.056418 0.998375
vn -0.008034 -0.056419 0.998375
vn 0.007948 -0.055800 0.998410
vn 0.007074 -0.049666 0.998741
vn -0.007946 -0.055803 0.998410
vn -0.007073 -0.049668 0.998741
vn 0.998153 -0.060125 0.008647
vn 0.998153 -0.060125 -0.008648
vn 0.998341 -0.056994 -0.008197
vn 0.998341 -0.056994 0.008197
vn 0.998382 -0.056289 -0.008096
vn 0.998714 -0.050190 -0.007219
vn 0.998382 -0.056289 0.008096
vn 0.998714 -0.050190 0.007219
vn 0.008483 -0.059562 -0.998189
vn -0.008482 -0.059563 -0.998189
vn -0.008034 -0.056419 -0.998375
vn 0.008036 -0.056418 -0.998375
vn -0.007946 -0.055803 -0.998410
vn -0.007073 -0.049668 -0.998741
vn 0.007948 -0.055800 -0.998410
vn 0.007074 -0.049667 -0.998741
vn -0.998153 -0.060127 -0.008648
vn -0.998153 -0.060127 0.008648
vn -0.998341 -0.056996 0.008197
vn -0.998341 -0.056995 -0.008198
vn -0.998382 -0.056291 0.008096
vn -0.998713 -0.050192 0.007219
vn -0.998382 -0.056291 -0.008096
vn -0.998714 -0.050192 -0.007219
vn 0.000000 1.000000 0.000000
vn 0.000000 1.000000 0.000000
vn 0.000000 1.000000 0.000000
vn 0.000000 1.000000 0.000000
vn -0.998916 0.046559 0.000000
vn -0.998916 0.046559 0.000000
vn -0.998916 0.046559 0.000000
vn -0.998916 0.046559 0.000000
vn 0.000000 -1.000000 0.000000
vn 0.000000 -1.000000 0.000000
vn 0.000000 -1.000000 0.000000
vn 0.000000 -1.000000 0.000000
vn 0.998916 0.046557 0.000000
vn 0.998916 0.046557 0.000000
vn 0.998916 0.046557 0.000000
vn 0.998916 0.046557 0.000000
vn 0.000000 1.000000 0.000000
vn 0.000000 1.000000 0.000000
vn 0.000000 1.000000 0.000000
vn 0.000000 1.000000 0.000000
vn 0.000000 0.046103 0.998937
vn 0.000000 0.046103 0.998937
vn 0.000000 0.046103 0.998937
vn 0.000000 0.046103 0.998937
vn 0.000000 -1.000000 0.000000
vn 0.000000 -1.000000 0.000000
vn 0.000000 -1.000000 0.000000
vn 0.000000 -1.000000 0.000000
vn 0.000000 0.046102 -0.998937
vn 0.000000 0.046102 -0.998937
vn 0.000000 0.046102 -0.998937
vn 0.000000 0.046102 -0.998937
vn 0.000000 1.000000 0.000000
vn 0.000000 1.000000 0.000000
vn 0.000000 1.000000 0.000000
vn 0.000000 1.000000 0.000000
vn 0.998916 0.046557 0.000000
vn 0.998916 0.046557 0.000000
vn 0.998916 0.046557 0.000000
vn 0.998916 0.046557 0.000000
vn 0.000000 -1.000000 0.000000
vn 0.000000 -1.000000 0.000000
vn 0.000000 -1.000000 0.000000
vn 0.000000 -1.000000 0.000000
vn -0.998916 0.046559 0.000000
vn -0.998916 0.046559 0.000000
vn -0.998916 0.046559 0.000000
vn -0.998916 0.046559 0.000000
vn 0.000000 1.000000 0.000000
vn 0.000000 1.000000 0.000000
vn 0.000000 1.000000 0.000000
vn 0.000000 1.000000 0.000000
vn 0.000000 0.046102 -0.998937
vn 0.000000 0.046102 -0.998937
vn 0.000000 0.046102 -0.998937
vn 0.000000 0.046102 -0.998937
vn 0.000000 -1.000000 0.000000
vn 0.000000 -1.000000 0.000000
vn 0.000000 -1.000000 0.000000
vn 0.000000 -1.000000 0.000000
vn 0.000000 0.046103 0.998937
vn 0.000000 0.046103 0.998937
vn 0.000000 0.046103 0.998937
vn 0.000000 0.046103 0.998937
vn 0.000000 0.371635 0.928379
vn 0.000000 0.371635 0.928379
vn 0.000000 0.371613 0.928388
vn 0.000000 0.371613 0.928388
vn -0.927102 0.374809 0.000000
vn -0.927102 0.374809 0.000000
vn -0.927111 0.374786 0.000000
vn -0.927111 0.374786 0.000000
vn 0.000000 0.371656 -0.928371
vn 0.000000 0.371656 -0.928371
vn 0.000000 0.371631 -0.928381
vn 0.000000 0.371631 -0.928381
vn 0.927135 0.374727 0.000000
vn 0.927135 0.374727 0.000000
vn 0.927145 0.374702 0.000000
vn 0.927145 0.374702 0.000000
vn 0.000000 0.371643 0.928376
vn 0.000000 0.371643 0.928376
vn -0.927098 0.374818 0.000000
vn -0.927098 0.374818 0.000000
vn 0.000000 0.371666 -0.928367
vn 0.000000 0.371666 -0.928367
vn 0.927131 0.374736 0.000000
vn 0.927131 0.374736 0.000000
vn 0.000000 0.388496 0.921450
vn 0.000000 0.388496 0.921450
vn 0.000000 0.388496 0.921450
vn 0.000000 0.388496 0.921450
vn -0.918613 0.395159 0.000000
vn -0.918613 0.395159 0.000000
vn -0.918613 0.395159 0.000000
vn -0.918613 0.395159 0.000000
vn 0.000000 0.388517 -0.921442
vn 0.000000 0.388517 -0.921442
vn 0.000000 0.388517 -0.921442
vn 0.000000 0.388517 -0.921442
vn 0.918648 0.395076 0.000000
vn 0.918649 0.395076 0.000000
vn 0.918648 0.395076 0.000000
vn 0.918649 0.395076 0.000000
vn 0.000000 -1.000000 -0.000003
vn 0.000000 -1.000000 -0.000003
vn 0.000000 -1.000000 -0.000002
vn 0.000000 -1.000000 -0.000002
vn 0.000000 1.000000 0.000002
vn 0.000000 1.000000 0.000002
vn 0.000000 1.000000 0.000002
vn 0.000000 1.000000 0.000002
vn 0.000000 -1.000000 0.000003
vn 0.000000 -1.000000 0.000002
vn 0.000000 1.000000 -0.000003
vn 0.000000 1.000000 -0.000002
vn 0.000000 -1.000000 0.000003
vn 0.000000 -1.000000 0.000002
vn 0.000000 1.000000 -0.000003
vn 0.000000 1.000000 -0.000002
s off
g pillar_urn1
usemtl lambert5SG
f 1/801/1 3/802/2 4/803/3 2/804/4
f 3/341/5 5/342/6 6/343/7 4/344/8
f 5/349/9 7/345/10 8/348/11 6/350/12
f 7/345/13 1/346/14 2/347/15 8/348/16
f 2/1/17 4/2/18 6/3/19 8/4/20
f 7/5/21 5/6/22 3/7/23 1/8/24
f 9/805/25 11/806/26 12/807/27 10/808/28
f 11/351/29 13/352/30 14/353/31 12/354/32
f 13/359/33 15/355/34 16/358/35 14/360/36
f 15/355/37 9/356/38 10/357/39 16/358/40
f 10/9/41 12/10/42 14/11/43 16/12/44
f 15/13/45 13/14/46 11/15/47 9/16/48
f 17/809/49 19/810/50 20/811/51 18/812/52
f 19/361/53 21/362/54 22/363/55 20/364/56
f 21/369/57 23/365/58 24/368/59 22/370/60
f 23/365/61 17/366/62 18/367/63 24/368/64
f 18/17/65 20/18/66 22/19/67 24/20/68
f 23/21/69 21/22/70 19/23/71 17/24/72
f 25/813/73 27/814/74 28/815/75 26/816/76
f 27/371/77 29/372/78 30/373/79 28/374/80
f 29/379/81 31/375/82 32/378/83 30/380/84
f 31/375/85 25/376/86 26/377/87 32/378/88
f 26/25/89 28/26/90 30/27/91 32/28/92
f 31/29/93 29/30/94 27/31/95 25/32/96
f 33/817/97 35/818/98 36/819/99 34/820/100
f 35/381/101 37/382/102 38/383/103 36/384/104
f 37/389/105 39/385/106 40/388/107 38/390/108
f 39/385/109 33/386/110 34/387/111 40/388/112
f 34/33/113 36/34/114 38/35/115 40/36/116
f 39/37/117 37/38/118 35/39/119 33/40/120
f 41/821/121 43/822/122 44/823/123 42/824/124
f 43/391/125 45/392/126 46/393/127 44/394/128
f 45/399/129 47/395/130 48/398/131 46/400/132
f 47/395/133 41/396/134 42/397/135 48/398/136
f 42/41/137 44/42/138 46/43/139 48/44/140
f 47/45/141 45/46/142 43/47/143 41/48/144
f 49/825/145 51/826/146 52/827/147 50/828/148
f 51/401/149 53/402/150 54/403/151 52/404/152
f 53/409/153 55/405/154 56/408/155 54/410/156
f 55/405/157 49/406/158 50/407/159 56/408/160
f 50/49/161 52/50/162 54/51/163 56/52/164
f 55/53/165 53/54/166 51/55/167 49/56/168
f 57/829/169 58/830/170 60/831/171 59/832/172
f 59/411/173 60/412/174 62/413/175 61/414/176
f 61/419/177 62/420/178 64/416/179 63/415/180
f 63/415/181 64/416/182 58/417/183 57/418/184
f 58/57/185 64/58/186 62/59/187 60/60/188
f 63/61/189 57/62/190 59/63/191 61/64/192
f 65/833/193 66/834/194 68/835/195 67/836/196
f 67/421/197 68/422/198 70/423/199 69/424/200
f 69/429/201 70/430/202 72/426/203 71/425/204
f 71/425/205 72/426/206 66/427/207 65/428/208
f 66/65/209 72/66/210 70/67/211 68/68/212
f 71/69/213 65/70/214 67/71/215 69/72/216
f 73/837/217 74/838/218 76/839/219 75/840/220
f 75/431/221 76/432/222 78/433/223 77/434/224
f 77/439/225 78/440/226 80/436/227 79/435/228
f 79/435/229 80/436/230 74/437/231 73/438/232
f 74/73/233 80/74/234 78/75/235 76/76/236
f 79/77/237 73/78/238 75/79/239 77/80/240
f 81/841/241 82/842/242 84/843/243 83/844/244
f 83/441/245 84/442/246 86/443/247 85/444/248
f 85/449/249 86/450/250 88/446/251 87/445/252
f 87/445/253 88/446/254 82/447/255 81/448/256
f 82/81/257 88/82/258 86/83/259 84/84/260
f 87/85/261 81/86/262 83/87/263 85/88/264
f 89/845/265 90/846/266 92/847/267 91/848/268
f 91/451/269 92/452/270 94/453/271 93/454/272
f 93/459/273 94/460/274 96/456/275 95/455/276
f 95/455/277 96/456/278 90/457/279 89/458/280
f 90/89/281 96/90/282 94/91/283 92/92/284
f 95/93/285 89/94/286 91/95/287 93/96/288
f 97/849/289 98/850/290 100/851/291 99/852/292
f 99/461/293 100/462/294 102/463/295 101/464/296
f 101/469/297 102/470/298 104/466/299 103/465/300
f 103/465/301 104/466/302 98/467/303 97/468/304
f 98/97/305 104/98/306 102/99/307 100/100/308
f 103/101/309 97/102/310 99/103/311 101/104/312
f 105/853/313 106/854/314 108/855/315 107/856/316
f 107/471/317 108/472/318 110/473/319 109/474/320
f 109/479/321 110/480/322 112/476/323 111/475/324
f 111/475/325 112/476/326 106/477/327 105/478/328
f 106/105/329 112/106/330 110/107/331 108/108/332
f 111/109/333 105/110/334 107/111/335 109/112/336
f 113/113/337 115/114/338 116/115/339 114/116/340
f 115/481/341 117/482/342 118/483/343 116/484/344
f 117/489/345 119/485/346 120/488/347 118/490/348
f 119/485/349 113/486/350 114/487/351 120/488/352
f 114/857/353 116/858/354 118/859/355 120/860/356
f 119/861/357 117/862/358 115/863/359 113/864/360
f 121/117/361 123/118/362 124/119/363 122/120/364
f 123/491/365 125/492/366 126/493/367 124/494/368
f 125/499/369 127/495/370 128/498/371 126/500/372
f 127/495/373 121/496/374 122/497/375 128/498/376
f 122/865/377 124/866/378 126/867/379 128/868/380
f 127/869/381 125/870/382 123/871/383 121/872/384
f 129/121/385 131/122/386 132/123/387 130/124/388
f 131/501/389 133/502/390 134/503/391 132/504/392
f 133/509/393 135/505/394 136/508/395 134/510/396
f 135/505/397 129/506/398 130/507/399 136/508/400
f 130/873/401 132/874/402 134/875/403 136/876/404
f 135/877/405 133/878/406 131/879/407 129/880/408
f 137/125/409 139/126/410 140/127/411 138/128/412
f 139/511/413 141/512/414 142/513/415 140/514/416
f 141/519/417 143/515/418 144/518/419 142/520/420
f 143/515/421 137/516/422 138/517/423 144/518/424
f 138/881/425 140/882/426 142/883/427 144/884/428
f 143/885/429 141/886/430 139/887/431 137/888/432
f 145/129/433 147/130/434 148/131/435 146/132/436
f 147/521/437 149/522/438 150/523/439 148/524/440
f 149/529/441 151/525/442 152/528/443 150/530/444
f 151/525/445 145/526/446 146/527/447 152/528/448
f 146/889/449 148/890/450 150/891/451 152/892/452
f 151/893/453 149/894/454 147/895/455 145/896/456
f 153/133/457 155/134/458 156/135/459 154/136/460
f 155/531/461 157/532/462 158/533/463 156/534/464
f 157/539/465 159/535/466 160/538/467 158/540/468
f 159/535/469 153/536/470 154/537/471 160/538/472
f 154/897/473 156/898/474 158/899/475 160/900/476
f 159/901/477 157/902/478 155/903/479 153/904/480
f 161/137/481 163/138/482 164/139/483 162/140/484
f 163/541/485 165/542/486 166/543/487 164/544/488
f 165/549/489 167/545/490 168/548/491 166/550/492
f 167/545/493 161/546/494 162/547/495 168/548/496
f 162/905/497 164/906/498 166/907/499 168/908/500
f 167/909/501 165/910/502 163/911/503 161/912/504
f 169/141/505 170/142/506 172/143/507 171/144/508
f 171/551/509 172/552/510 174/553/511 173/554/512
f 173/559/513 174/560/514 176/556/515 175/555/516
f 175/555/517 176/556/518 170/557/519 169/558/520
f 170/913/521 176/914/522 174/915/523 172/916/524
f 175/917/525 169/918/526 171/919/527 173/920/528
f 177/145/529 178/146/530 180/147/531 179/148/532
f 179/561/533 180/562/534 182/563/535 181/564/536
f 181/569/537 182/570/538 184/566/539 183/565/540
f 183/565/541 184/566/542 178/567/543 177/568/544
f 178/921/545 184/922/546 182/923/547 180/924/548
f 183/925/549 177/926/550 179/927/551 181/928/552
f 185/149/553 186/150/554 188/151/555 187/152/556
f 187/571/557 188/572/558 190/573/559 189/574/560
f 189/579/561 190/580/562 192/576/563 191/575/564
f 191/575/565 192/576/566 186/577/567 185/578/568
f 186/929/569 192/930/570 190/931/571 188/932/572
f 191/933/573 185/934/574 187/935/575 189/936/576
f 193/153/577 194/154/578 196/155/579 195/156/580
f 195/581/581 196/582/582 198/583/583 197/584/584
f 197/589/585 198/590/586 200/586/587 199/585/588
f 199/585/589 200/586/590 194/587/591 193/588/592
f 194/937/593 200/938/594 198/939/595 196/940/596
f 199/941/597 193/942/598 195/943/599 197/944/600
f 201/157/601 202/158/602 204/159/603 203/160/604
f 203/591/605 204/592/606 206/593/607 205/594/608
f 205/599/609 206/600/610 208/596/611 207/595/612
f 207/595/613 208/596/614 202/597/615 201/598/616
f 202/945/617 208/946/618 206/947/619 204/948/620
f 207/949/621 201/950/622 203/951/623 205/952/624
f 209/161/625 210/162/626 212/163/627 211/164/628
f 211/601/629 212/602/630 214/603/631 213/604/632
f 213/609/633 214/610/634 216/606/635 215/605/636
f 215/605/637 216/606/638 210/607/639 209/608/640
f 210/953/641 216/954/642 214/955/643 212/956/644
f 215/957/645 209/958/646 211/959/647 213/960/648
f 217/165/649 218/166/650 220/167/651 219/168/652
f 219/611/653 220/612/654 222/613/655 221/614/656
f 221/619/657 222/620/658 224/616/659 223/615/660
f 223/615/661 224/616/662 218/617/663 217/618/664
f 218/961/665 224/962/666 222/963/667 220/964/668
f 223/965/669 217/966/670 219/967/671 221/968/672
f 225/969/673 226/970/674 228/971/675 227/972/676
f 289/621/677 290/622/678 291/623/679 292/624/680
f 229/973/681 230/974/682 232/975/683 231/976/684
f 231/625/685 232/626/686 226/627/687 225/628/688
f 226/169/689 232/170/690 230/171/691 228/172/692
f 231/173/693 225/174/694 227/175/695 229/176/696
s 1
f 227/629/697 228/630/698 332/631/699 329/632/700
f 228/630/698 230/633/701 331/634/702 332/631/699
f 230/633/701 229/635/703 330/636/704 331/634/702
f 229/635/703 227/629/697 329/632/700 330/636/704
s off
f 233/977/705 234/978/706 238/979/707 237/980/708
f 234/177/709 235/178/710 239/179/711 238/180/712
f 235/981/713 236/982/714 240/983/715 239/984/716
f 236/181/717 233/182/718 237/183/719 240/184/720
s 2
f 237/637/721 238/638/722 242/639/723 241/640/724
f 238/638/722 239/641/725 243/642/726 242/639/723
f 239/641/725 240/643/727 244/644/728 243/642/726
f 240/643/727 237/637/721 241/640/724 244/644/728
s off
f 241/985/729 242/986/730 300/987/731 297/988/732
f 242/185/733 243/186/734 299/187/735 300/188/736
f 243/989/737 244/990/738 298/991/739 299/992/740
f 244/189/741 241/190/742 297/191/743 298/192/744
s 3
f 245/993/745 246/994/746 250/995/747 249/996/748
s 4
f 246/193/749 247/194/750 251/195/751 250/196/752
s 5
f 247/999/753 248/1000/754 252/1001/755 251/1002/756
s 6
f 248/199/757 245/200/758 249/201/759 252/202/760
s off
f 305/1005/761 306/1006/762 307/1007/763 308/1008/764
f 306/205/765 309/206/766 310/207/767 307/208/768
f 309/1009/769 311/1010/770 312/1011/771 310/1012/772
f 311/209/773 305/210/774 308/211/775 312/212/776
f 253/649/777 254/650/778 258/646/779 257/645/780
f 254/650/781 255/657/782 259/651/783 258/646/784
f 255/657/785 256/658/786 260/653/787 259/651/788
f 256/658/789 253/649/790 257/645/791 260/653/792
s 7
f 257/645/793 258/646/794 262/647/795 261/648/796
f 258/646/794 259/651/797 263/652/798 262/647/795
f 259/651/797 260/653/799 264/654/800 263/652/798
f 260/653/799 257/645/793 261/648/796 264/654/800
s off
f 377/1013/801 378/1014/802 379/1015/803 380/1016/804
f 381/213/805 382/214/806 383/215/807 384/216/808
f 386/1017/809 385/1018/810 387/1019/811 388/1020/812
f 390/217/813 389/218/814 391/219/815 392/220/816
s 8
f 265/665/817 266/666/818 270/662/819 269/661/820
s 9
f 266/666/821 267/671/822 271/667/823 270/662/824
s 10
f 267/671/825 268/672/826 272/669/827 271/667/828
s 11
f 268/672/829 265/665/830 269/661/831 272/669/832
s 8
f 269/661/820 270/662/819 274/663/833 273/664/834
s 9
f 270/662/824 271/667/823 275/668/835 274/663/836
s 10
f 271/667/828 272/669/827 276/670/837 275/668/838
s 11
f 272/669/832 269/661/831 273/664/839 276/670/840
s off
f 273/1021/841 274/1022/842 278/1023/843 277/1024/844
f 274/221/845 275/222/846 279/223/847 278/224/848
f 275/1027/849 276/1028/850 280/1029/851 279/1030/852
f 276/227/853 273/228/854 277/229/855 280/230/856
f 277/1024/857 278/1023/858 401/1025/859 402/1026/860
f 278/224/861 279/223/862 404/225/863 401/226/864
f 279/1030/865 280/1029/866 403/1031/867 404/1032/868
f 280/230/869 277/229/870 402/231/871 403/232/872
s 12
f 281/673/873 282/674/874 286/675/875 285/676/876
f 282/674/874 283/677/877 287/678/878 286/675/875
f 283/677/877 284/679/879 288/680/880 287/678/878
f 284/679/879 281/673/873 285/676/876 288/680/880
s off
f 285/1033/881 286/1034/882 290/1035/883 289/1036/884
f 286/233/885 287/234/886 291/235/887 290/236/888
f 287/1037/889 288/1038/890 292/1039/891 291/1040/892
f 288/237/893 285/238/894 289/239/895 292/240/896
f 314/241/897 313/242/898 315/243/899 316/244/900
f 317/1041/901 314/1042/902 316/1043/903 318/1044/904
f 319/245/905 317/246/906 318/247/907 320/248/908
f 313/1045/909 319/1046/910 320/1047/911 315/1048/912
f 322/249/913 321/250/914 323/251/915 324/252/916
f 325/1049/917 322/1050/918 324/1051/919 326/1052/920
f 327/253/921 325/254/922 326/255/923 328/256/924
f 321/1053/925 327/1054/926 328/1055/927 323/1056/928
s 6
f 302/203/929 301/204/930 245/200/758 248/199/757
s 5
f 303/1003/931 302/1004/932 248/1000/754 247/999/753
s 4
f 304/197/933 303/198/934 247/194/750 246/193/749
s 3
f 301/997/935 304/998/936 246/994/746 245/993/745
s 13
f 249/681/937 250/682/938 306/683/939 305/684/940
s 14
f 254/650/941 253/649/942 308/655/943 307/656/944
s 13
f 250/682/938 251/685/945 309/686/946 306/683/939
s 14
f 255/657/947 254/650/941 307/656/944 310/660/948
s 13
f 251/685/945 252/687/949 311/688/950 309/686/946
s 14
f 256/658/951 255/657/947 310/660/948 312/659/952
s 13
f 252/687/949 249/681/937 305/684/940 311/688/950
s 14
f 253/649/942 256/658/951 312/659/952 308/655/943
s 15
f 294/689/953 293/690/954 313/691/955 314/692/956
s 16
f 265/697/957 268/698/958 316/699/959 315/700/960
s 15
f 295/695/961 294/689/953 314/692/956 317/696/962
s 16
f 268/698/958 267/701/963 318/702/964 316/699/959
s 15
f 296/693/965 295/695/961 317/696/962 319/694/966
s 16
f 267/701/963 266/703/967 320/704/968 318/702/964
s 15
f 293/690/954 296/693/965 319/694/966 313/691/955
s 16
f 266/703/967 265/697/957 315/700/960 320/704/968
s 17
f 298/705/969 297/706/970 321/707/971 322/708/972
s 18
f 301/713/973 302/714/974 324/715/975 323/716/976
s 17
f 299/711/977 298/705/969 322/708/972 325/712/978
s 18
f 302/714/974 303/717/979 326/718/980 324/715/975
s 17
f 300/709/981 299/711/977 325/712/978 327/710/982
s 18
f 303/717/979 304/719/983 328/720/984 326/718/980
s 17
f 297/706/970 300/709/981 327/710/982 321/707/971
s 18
f 304/719/983 301/713/973 323/716/976 328/720/984
s 19
f 338/721/985 337/722/986 345/723/987 346/724/988
f 341/727/989 338/721/985 346/724/988 347/728/990
f 343/725/991 341/727/989 347/728/990 348/726/992
f 337/722/986 343/725/991 348/726/992 345/723/987
s 20
f 334/729/993 333/730/994 233/731/995 236/732/996
f 335/735/997 334/729/993 236/732/996 235/736/998
f 336/733/999 335/735/997 235/736/998 234/734/1000
f 333/730/994 336/733/999 234/734/1000 233/731/995
s off
f 330/257/1001 329/258/1002 337/259/1003 338/260/1004
f 333/261/1005 334/262/1006 340/263/1007 339/264/1008
f 331/1057/1009 330/1058/1010 338/1059/1011 341/1060/1012
f 334/1061/1013 335/1062/1014 342/1063/1015 340/1064/1016
f 332/265/1017 331/266/1018 341/267/1019 343/268/1020
f 335/269/1021 336/270/1022 344/271/1023 342/272/1024
f 329/1065/1025 332/1066/1026 343/1067/1027 337/1068/1028
f 336/1069/1029 333/1070/1030 339/1071/1031 344/1072/1032
s 21
f 354/737/1033 353/738/1034 355/739/1035 356/740/1036
f 357/743/1037 354/737/1033 356/740/1036 358/744/1038
f 359/741/1039 357/743/1037 358/744/1038 360/742/1040
f 353/738/1034 359/741/1039 360/742/1040 355/739/1035
s 22
f 350/745/1041 349/746/1042 339/747/1043 340/748/1044
f 351/751/1045 350/745/1041 340/748/1044 342/752/1046
f 352/749/1047 351/751/1045 342/752/1046 344/750/1048
f 349/746/1042 352/749/1047 344/750/1048 339/747/1043
s off
f 346/273/1049 345/274/1050 353/275/1051 354/276/1052
f 349/277/1053 350/278/1054 356/279/1055 355/280/1056
f 347/1073/1057 346/1074/1058 354/1075/1059 357/1076/1060
f 350/1077/1061 351/1078/1062 358/1079/1063 356/1080/1064
f 348/281/1065 347/282/1066 357/283/1067 359/284/1068
f 351/285/1069 352/286/1070 360/287/1071 358/288/1072
f 345/1081/1073 348/1082/1074 359/1083/1075 353/1084/1076
f 352/1085/1077 349/1086/1078 355/1087/1079 360/1088/1080
s 23
f 261/1089/1081 262/1090/1082 362/1091/1083 361/1092/1084
f 262/1090/1082 296/1093/1085 363/1094/1086 362/1091/1083
f 296/1093/1085 293/1095/1087 364/1096/1088 363/1094/1086
f 293/1095/1087 261/1089/1081 361/1092/1084 364/1096/1088
s 24
f 262/289/1089 263/290/1090 366/291/1091 365/292/1092
f 263/290/1090 295/293/1093 367/294/1094 366/291/1091
f 295/293/1093 296/295/1095 368/296/1096 367/294/1094
f 296/295/1095 262/289/1089 365/292/1092 368/296/1096
s 25
f 263/1097/1097 264/1098/1098 369/1099/1099 370/1100/1100
f 264/1098/1098 294/1101/1101 371/1102/1102 369/1099/1099
f 294/1101/1101 295/1103/1103 372/1104/1104 371/1102/1102
f 295/1103/1103 263/1097/1097 370/1100/1100 372/1104/1104
s 26
f 264/297/1105 261/298/1106 373/299/1107 374/300/1108
f 261/298/1106 293/301/1109 375/302/1110 373/299/1107
f 293/301/1109 294/303/1111 376/304/1112 375/302/1110
f 294/303/1111 264/297/1105 374/300/1108 376/304/1112
s off
f 361/753/1113 362/754/1114 378/755/1115 377/756/1116
f 362/305/1117 363/306/1118 379/307/1119 378/308/1120
f 363/757/1121 364/758/1122 380/759/1123 379/760/1124
f 364/309/1125 361/310/1126 377/311/1127 380/312/1128
f 365/761/1129 366/762/1130 382/763/1131 381/764/1132
f 366/1105/1133 367/1106/1134 383/1107/1135 382/1108/1136
f 367/765/1137 368/766/1138 384/767/1139 383/768/1140
f 368/1109/1141 365/1110/1142 381/1111/1143 384/1112/1144
f 370/769/1145 369/770/1146 385/771/1147 386/772/1148
f 369/313/1149 371/314/1150 387/315/1151 385/316/1152
f 371/773/1153 372/774/1154 388/775/1155 387/776/1156
f 372/317/1157 370/318/1158 386/319/1159 388/320/1160
f 374/777/1161 373/778/1162 389/779/1163 390/780/1164
f 373/1113/1165 375/1114/1166 391/1115/1167 389/1116/1168
f 375/781/1169 376/782/1170 392/783/1171 391/784/1172
f 376/1117/1173 374/1118/1174 390/1119/1175 392/1120/1176
s 27
f 394/1121/1177 393/1122/1178 282/1123/1179 281/1124/1180
s 28
f 395/321/1181 394/322/1182 281/323/1183 284/324/1184
s 29
f 396/1127/1185 395/1128/1186 284/1129/1187 283/1130/1188
s 30
f 393/327/1189 396/328/1190 283/329/1191 282/330/1192
s 27
f 398/1125/1193 397/1126/1194 393/1122/1178 394/1121/1177
s 28
f 399/325/1195 398/326/1196 394/322/1182 395/321/1181
s 29
f 400/1131/1197 399/1132/1198 395/1128/1186 396/1127/1185
s 30
f 397/331/1199 400/332/1200 396/328/1190 393/327/1189
s off
f 406/1133/1201 405/1134/1202 407/1135/1203 408/1136/1204
f 410/333/1205 409/334/1206 405/335/1207 406/336/1208
f 412/1137/1209 411/1138/1210 409/1139/1211 410/1140/1212
f 408/337/1213 407/338/1214 411/339/1215 412/340/1216
s 31
f 402/785/1217 401/786/1218 407/787/1219 405/788/1220
s 32
f 397/793/1221 398/794/1222 406/795/1223 408/796/1224
s 31
f 403/791/1225 402/785/1217 405/788/1220 409/792/1226
s 32
f 398/794/1222 399/797/1227 410/798/1228 406/795/1223
s 31
f 404/789/1229 403/791/1225 409/792/1226 411/790/1230
s 32
f 399/797/1227 400/799/1231 412/800/1232 410/798/1228
s 31
f 401/786/1218 404/789/1229 411/790/1230 407/787/1219
s 32
f 400/799/1231 397/793/1221 408/796/1224 412/800/1232
